{
.appVersion = "3151";
.formatVersion = 3;
DisplayStrings = (
ABCDEFGHIJKLMNOPQRSTUVWXYZ0123456789
);
axes = (
{
name = Twist;
tag = TWST;
}
);
date = "2024-03-01 17:05:42 +0000";
familyName = Twist_001;
fontMaster = (
{
axesValues = (
0
);
iconName = Light_Condensed;
id = m01;
metricValues = (
{
over = 16;
pos = 800;
},
{
over = 16;
pos = 760;
},
{
over = 16;
pos = 400;
},
{
over = -16;
},
{
over = -16;
pos = -200;
},
{
over = -16;
}
);
name = Twist00;
},
{
axesValues = (
50
);
iconName = SemiLight_Condensed;
id = m002;
metricValues = (
{
over = 16;
pos = 800;
},
{
over = 16;
pos = 740;
},
{
over = 16;
pos = 400;
},
{
over = -16;
},
{
over = -16;
pos = -200;
},
{
over = -16;
}
);
name = Twist50;
},
{
axesValues = (
100
);
iconName = Condensed;
id = m003;
metricValues = (
{
over = 16;
pos = 800;
},
{
over = 16;
pos = 700;
},
{
over = 16;
pos = 400;
},
{
over = -16;
},
{
over = -16;
pos = -200;
},
{
over = -16;
}
);
name = Twist100;
},
{
axesValues = (
150
);
iconName = SemiBold_Condensed;
id = m004;
metricValues = (
{
over = 16;
pos = 800;
},
{
over = 16;
pos = 650;
},
{
over = 16;
pos = 400;
},
{
over = -16;
},
{
over = -16;
pos = -200;
},
{
over = -16;
}
);
name = Twist150;
},
{
axesValues = (
200
);
iconName = Bold_Condensed;
id = m005;
metricValues = (
{
over = 16;
pos = 800;
},
{
over = 16;
pos = 600;
},
{
over = 16;
pos = 400;
},
{
over = -16;
},
{
over = -16;
pos = -200;
},
{
over = -16;
}
);
name = Twist200;
}
);
glyphs = (
{
glyphname = A;
lastChange = "2024-03-11 00:18:55 +0000";
layers = (
{
layerId = m01;
shapes = (
{
closed = 1;
nodes = (
(315,727,l),
(577,0,l),
(620,0,l),
(332,800,l),
(298,800,l),
(20,0,l),
(63,0,l)
);
},
{
closed = 1;
nodes = (
(139,282,l),
(259,282,o),
(378,282,o),
(498,282,c),
(484,322,l),
(374,322,o),
(263,322,o),
(153,322,c)
);
}
);
width = 640;
},
{
background = {
shapes = (
{
closed = 1;
nodes = (
(289,770,l),
(33,59,l),
(19,48,l),
(-62,40,l),
(-62,0,l),
(169,0,l),
(169,40,l),
(89,48,l),
(80,58,l),
(147,245,l),
(479,245,l),
(548,58,l),
(540,48,l),
(459,40,l),
(459,0,l),
(718,0,l),
(718,40,l),
(638,48,l),
(631,55,l),
(368,770,l)
);
},
{
closed = 1;
nodes = (
(312,705,l),
(464,286,l),
(162,286,l)
);
}
);
};
layerId = m002;
shapes = (
{
closed = 1;
nodes = (
(330,696,l),
(570,0,l),
(630,0,l),
(359,800,l),
(299,800,l),
(30,0,l),
(90,0,l)
);
},
{
closed = 1;
nodes = (
(192,295,l),
(312,282,o),
(356,285,o),
(476,272,c),
(458,325,l),
(348,319,o),
(305,309,o),
(195,303,c)
);
}
);
width = 660;
},
{
background = {
shapes = (
{
closed = 1;
nodes = (
(305,770,l),
(61,77,l),
(42,66,l),
(-31,57,l),
(-31,0,l),
(212,0,l),
(212,57,l),
(137,66,l),
(127,77,l),
(185,243,l),
(492,243,l),
(553,76,l),
(545,66,l),
(470,57,l),
(470,0,l),
(755,0,l),
(755,57,l),
(682,66,l),
(674,74,l),
(420,770,l)
);
},
{
closed = 1;
nodes = (
(337,678,l),
(473,300,l),
(205,300,l)
);
}
);
};
layerId = m003;
shapes = (
{
closed = 1;
nodes = (
(361,662,l),
(586,0,l),
(700,0,l),
(409,800,l),
(315,800,l),
(40,0,l),
(156,0,l)
);
},
{
closed = 1;
nodes = (
(261,340,l),
(311,343,o),
(342,242,o),
(505,247,c),
(471,345,l),
(347,345,o),
(292,245,o),
(232,247,c)
);
}
);
width = 740;
},
{
layerId = m004;
shapes = (
{
closed = 1;
nodes = (
(395,603,l),
(600,0,l),
(750,0,l),
(457,800,l),
(324,800,l),
(50,0,l),
(200,0,l)
);
},
{
closed = 1;
nodes = (
(314,354,l),
(415,352,o),
(465,225,o),
(526,224,c),
(479,355,l),
(421,329,o),
(434,227,o),
(273,226,c)
);
}
);
width = 800;
},
{
background = {
shapes = (
{
closed = 1;
nodes = (
(318,770,l),
(113,139,l),
(83,124,l),
(30,116,l),
(30,0,l),
(311,0,l),
(311,116,l),
(257,124,l),
(243,139,l),
(273,237,l),
(498,237,l),
(532,136,l),
(523,124,l),
(470,116,l),
(470,0,l),
(841,0,l),
(841,116,l),
(787,124,l),
(776,134,l),
(552,770,l)
);
},
{
closed = 1;
nodes = (
(380,590,l),
(462,348,l),
(307,348,l)
);
}
);
};
layerId = m005;
shapes = (
{
closed = 1;
nodes = (
(436,588,l),
(610,0,l),
(810,0,l),
(542,800,l),
(328,800,l),
(60,0,l),
(260,0,l)
);
},
{
closed = 1;
nodes = (
(371,370,l),
(418,370,o),
(454,369,o),
(501,369,c),
(538,243,l),
(462,243,o),
(409,243,o),
(333,243,c)
);
}
);
width = 870;
}
);
unicode = (65,97);
},
{
glyphname = B;
lastChange = "2024-03-11 00:19:08 +0000";
layers = (
{
layerId = m01;
shapes = (
{
closed = 1;
nodes = (
(20,0,l),
(60,0,l),
(60,253,o),
(60,507,o),
(60,760,c),
(238,760,l),
(398,760,o),
(429,663,o),
(429,586,c),
(429,493,o),
(335,420,o),
(228,420,c),
(60,420,l),
(60,380,l),
(230,380,l),
(380,380,o),
(469,493,o),
(469,586,c),
(469,701,o),
(408,800,o),
(244,800,c),
(20,800,l)
);
},
{
closed = 1;
nodes = (
(500,74,o),
(410,0,o),
(260,0,c),
(60,0,l),
(60,40,l),
(258,40,l),
(365,40,o),
(460,81,o),
(460,196,c),
(460,285,o),
(418,381,o),
(258,381,c),
(280,381,o),
(344,401,o),
(353,410,c),
(437,396,o),
(500,318,o),
(500,196,c)
);
}
);
width = 520;
},
{
layerId = m002;
shapes = (
{
closed = 1;
nodes = (
(30,0,l),
(90,0,l),
(90,247,o),
(90,493,o),
(90,740,c),
(267,740,l),
(517,757,o),
(472,621,o),
(464,549,c),
(448,453,o),
(374,432,o),
(268,429,c),
(90,429,l),
(90,369,l),
(270,369,l),
(422,372,o),
(517,427,o),
(529,549,c),
(533,672,o),
(470,762,o),
(274,800,c),
(30,800,l)
);
},
{
closed = 1;
nodes = (
(550,70,o),
(428,0,o),
(290,0,c),
(90,0,l),
(90,60,l),
(288,60,l),
(361,60,o),
(490,85,o),
(490,206,c),
(490,295,o),
(447,370,o),
(287,370,c),
(289,390,o),
(292,411,o),
(294,431,c),
(462,431,o),
(550,328,o),
(550,206,c)
);
}
);
width = 580;
},
{
layerId = m003;
shapes = (
{
closed = 1;
nodes = (
(40,0,l),
(140,0,l),
(140,233,o),
(140,467,o),
(140,700,c),
(276,700,l),
(502,707,o),
(579,643,o),
(579,546,c),
(570,419,o),
(485,346,o),
(315,355,c),
(140,355,l),
(140,455,l),
(284,455,l),
(386,455,o),
(466,449,o),
(479,544,c),
(483,667,o),
(480,762,o),
(284,800,c),
(40,800,l)
);
},
{
attr = {
fill = 1;
};
closed = 1;
nodes = (
(600,63,o),
(468,0,o),
(330,0,c),
(140,0,l),
(140,100,l),
(328,100,l),
(401,100,o),
(500,117,o),
(500,212,c),
(506,306,o),
(457,354,o),
(332,355,c),
(333,388,o),
(333,422,o),
(334,455,c),
(521,455,o),
(600,334,o),
(600,212,c)
);
}
);
width = 640;
},
{
layerId = m004;
shapes = (
{
closed = 1;
nodes = (
(50,0,l),
(200,0,l),
(200,217,o),
(200,433,o),
(200,650,c),
(298,650,l),
(410,650,o),
(460,635,o),
(473,573,c),
(473,500,o),
(510,365,o),
(350,329,c),
(200,329,l),
(200,479,l),
(350,479,l),
(443,488,o),
(628,476,o),
(628,569,c),
(628,728,o),
(555,807,o),
(294,800,c),
(50,800,l)
);
},
{
attr = {
fill = "1";
};
closed = 1;
nodes = (
(650,84,o),
(537,0,o),
(380,0,c),
(200,0,l),
(200,150,l),
(378,150,l),
(451,150,o),
(500,185,o),
(500,233,c),
(500,302,o),
(475,328,o),
(350,329,c),
(350,379,o),
(350,429,o),
(350,479,c),
(537,479,o),
(650,379,o),
(650,233,c)
);
}
);
width = 700;
},
{
layerId = m005;
shapes = (
{
closed = 1;
nodes = (
(60,0,l),
(260,0,l),
(260,223,o),
(261,468,o),
(261,691,c),
(319,691,l),
(469,691,o),
(469,612,o),
(469,553,c),
(469,490,o),
(438,458,o),
(347,455,c),
(260,455,l),
(261,345,l),
(350,345,l),
(504,358,o),
(664,382,o),
(669,552,c),
(665,720,o),
(574,800,o),
(304,801,c),
(60,800,l)
);
},
{
attr = {
fill = "1";
};
closed = 1;
nodes = (
(710,72,o),
(593,0,o),
(410,0,c),
(260,0,l),
(260,110,l),
(408,110,l),
(481,110,o),
(510,165,o),
(510,221,c),
(507,226,o),
(533,325,o),
(410,351,c),
(472,357,o),
(567,378,o),
(607,416,c),
(666,381,o),
(710,367,o),
(710,221,c)
);
}
);
width = 770;
}
);
unicode = (66,98);
},
{
glyphname = C;
lastChange = "2024-03-11 00:19:14 +0000";
layers = (
{
layerId = m01;
shapes = (
{
closed = 1;
nodes = (
(580,545,l),
(580,687,o),
(481,760,o),
(338,760,c),
(143,760,o),
(60,606,o),
(60,400,c),
(67,152,o),
(138,48,o),
(338,40,c),
(473,40,o),
(580,123,o),
(580,256,c),
(620,256,l),
(620,108,o),
(519,1,o),
(338,0,c),
(102,0,o),
(20,141,o),
(20,400,c),
(20,641,o),
(117,800,o),
(338,800,c),
(503,800,o),
(620,708,o),
(620,545,c)
);
}
);
width = 640;
},
{
layerId = m002;
shapes = (
{
closed = 1;
nodes = (
(613,545,l),
(613,687,o),
(468,748,o),
(348,748,c),
(153,748,o),
(90,580,o),
(90,400,c),
(96,169,o),
(176,67,o),
(348,60,c),
(459,60,o),
(590,137,o),
(590,256,c),
(650,256,l),
(650,114,o),
(523,0,o),
(348,0,c),
(112,0,o),
(30,160,o),
(30,400,c),
(23,633,o),
(127,792,o),
(348,792,c),
(495,792,o),
(627,708,o),
(627,545,c)
);
}
);
width = 680;
},
{
layerId = m003;
shapes = (
{
closed = 1;
nodes = (
(700,545,l),
(700,736,o),
(557,800,o),
(358,800,c),
(186,800,o),
(146,580,o),
(140,400,c),
(146,169,o),
(207,104,o),
(358,100,c),
(487,100,o),
(600,134,o),
(600,266,c),
(700,266,l),
(700,91,o),
(605,0,o),
(358,0,c),
(122,0,o),
(40,160,o),
(40,400,c),
(40,633,o),
(137,700,o),
(358,700,c),
(478,700,o),
(600,691,o),
(600,545,c)
);
}
);
width = 740;
},
{
layerId = m004;
shapes = (
{
closed = 1;
nodes = (
(750,535,l),
(750,744,o),
(607,800,o),
(408,800,c),
(117,800,o),
(50,580,o),
(50,400,c),
(50,169,o),
(261,150,o),
(368,150,c),
(497,150,o),
(584,174,o),
(600,276,c),
(750,276,l),
(750,101,o),
(615,0,o),
(368,0,c),
(187,0,o),
(210,192,o),
(217,400,c),
(234,622,o),
(322,650,o),
(408,650,c),
(433,650,o),
(600,660,o),
(600,535,c)
);
}
);
width = 800;
},
{
layerId = m005;
shapes = (
{
closed = 1;
nodes = (
(810,510,l),
(810,719,o),
(657,800,o),
(423,800,c),
(167,800,o),
(60,562,o),
(60,400,c),
(60,-18,o),
(423,0,o),
(423,0,c),
(714,0,o),
(810,145,o),
(810,306,c),
(641,306,l),
(641,209,o),
(542,156,o),
(423,156,c),
(379,156,o),
(227,185,o),
(230,400,c),
(230,633,o),
(423,636,o),
(423,636,c),
(481,636,o),
(636,632,o),
(641,510,c)
);
}
);
width = 870;
}
);
unicode = (67,99);
},
{
glyphname = D;
lastChange = "2024-03-09 14:43:46 +0000";
layers = (
{
layerId = m01;
shapes = (
{
closed = 1;
nodes = (
(20,0,l),
(60,0,l),
(60,760,l),
(173,760,o),
(256,763,o),
(384,733,c),
(557,671,o),
(579,536,o),
(579,418,c),
(581,229,o),
(517,98,o),
(395,64,c),
(286,35,o),
(185,42,o),
(60,40,c),
(60,28,o),
(60,12,o),
(60,0,c),
(114,4,o),
(295,-10,o),
(407,26,c),
(525,63,o),
(619,171,o),
(619,418,c),
(619,558,o),
(587,701,o),
(393,773,c),
(256,805,o),
(142,798,o),
(20,800,c)
);
}
);
width = 639;
},
{
layerId = m002;
shapes = (
{
closed = 1;
nodes = (
(30,0,l),
(108,0,l),
(108,746,l),
(197,745,o),
(351,772,o),
(434,745,c),
(585,690,o),
(575,536,o),
(586,417,c),
(586,230,o),
(521,115,o),
(399,78,c),
(317,51,o),
(232,44,o),
(108,52,c),
(108,47,o),
(108,3,o),
(108,0,c),
(223,3,o),
(332,-8,o),
(428,16,c),
(554,59,o),
(673,189,o),
(664,418,c),
(657,569,o),
(597,705,o),
(439,762,c),
(352,786,o),
(197,800,o),
(30,800,c)
);
}
);
width = 694;
},
{
layerId = m003;
shapes = (
{
closed = 1;
nodes = (
(40,0,l),
(154,0,l),
(158,725,l),
(247,724,o),
(329,734,o),
(412,707,c),
(588,652,o),
(686,575,o),
(700,417,c),
(700,230,o),
(626,51,o),
(466,14,c),
(384,-6,o),
(274,0,o),
(154,0,c),
(155,23,o),
(154,47,o),
(155,70,c),
(281,70,o),
(322,65,o),
(419,87,c),
(545,130,o),
(615,214,o),
(615,412,c),
(608,563,o),
(633,718,o),
(453,785,c),
(366,809,o),
(158,799,o),
(40,800,c)
);
}
);
width = 740;
},
{
background = {
shapes = (
{
closed = 1;
nodes = (
(471,818,o),
(194,806,o),
(55,805,c),
(34,462,o),
(84,315,o),
(132,222,c),
(173,311,o),
(214,431,o),
(209,712,c),
(310,708,o),
(406,709,o),
(484,661,c),
(635,556,o),
(664,255,o),
(491,144,c),
(360,82,o),
(333,87,o),
(199,87,c),
(186,133,o),
(159,169,o),
(132,222,c),
(95,141,o),
(58,96,o),
(58,4,c),
(58,4,o),
(354,0,o),
(354,0,c),
(357,0,o),
(502,-4,o),
(561,27,c),
(772,135,o),
(877,594,o),
(557,769,c)
);
}
);
};
layerId = m004;
shapes = (
{
closed = 1;
nodes = (
(50,0,l),
(199,0,l),
(209,712,l),
(298,711,o),
(350,705,o),
(416,693,c),
(521,667,o),
(597,554,o),
(611,413,c),
(611,226,o),
(656,50,o),
(505,9,c),
(423,-11,o),
(319,0,o),
(199,0,c),
(199,29,o),
(200,58,o),
(200,87,c),
(298,87,o),
(333,83,o),
(432,116,c),
(497,148,o),
(761,211,o),
(761,416,c),
(754,530,o),
(717,700,o),
(534,779,c),
(371,818,o),
(168,799,o),
(50,800,c)
);
}
);
width = 811;
},
{
background = {
shapes = (
{
closed = 1;
nodes = (
(370,84,o),
(258,103,o),
(258,103,c),
(258,307,l),
(258,686,l),
(269,686,o),
(422,709,o),
(520,626,c),
(627,536,o),
(621,223,o),
(497,151,c)
);
},
{
closed = 1;
nodes = (
(512,825,o),
(228,791,o),
(71,798,c),
(71,637,l),
(71,2,l),
(482,0,l),
(574,5,o),
(585,2,o),
(652,50,c),
(851,194,o),
(870,635,o),
(659,743,c)
);
}
);
};
layerId = m005;
shapes = (
{
closed = 1;
nodes = (
(60,0,l),
(258,0,l),
(258,686,l),
(350,692,o),
(376,686,o),
(442,670,c),
(535,644,o),
(595,550,o),
(595,413,c),
(595,226,o),
(539,173,o),
(458,132,c),
(376,112,o),
(379,97,o),
(258,103,c),
(258,69,o),
(258,34,o),
(258,0,c),
(356,0,o),
(551,-12,o),
(629,34,c),
(694,66,o),
(810,213,o),
(810,418,c),
(803,532,o),
(790,736,o),
(551,779,c),
(356,812,o),
(178,800,o),
(60,800,c)
);
}
);
width = 870;
}
);
unicode = (68,100);
},
{
glyphname = E;
lastChange = "2024-03-08 20:18:12 +0000";
layers = (
{
layerId = m01;
shapes = (
{
closed = 1;
nodes = (
(509,0,l),
(509,37,l),
(60,37,l),
(60,393,l),
(166,393,o),
(272,394,o),
(378,394,c),
(378,408,o),
(378,423,o),
(378,437,c),
(272,437,o),
(167,437,o),
(61,437,c),
(61,760,l),
(510,760,l),
(510,800,l),
(21,800,l),
(20,0,l)
);
}
);
width = 530;
},
{
layerId = m002;
shapes = (
{
closed = 1;
nodes = (
(540,0,l),
(540,58,l),
(101,58,l),
(101,381,l),
(201,392,o),
(302,403,o),
(402,414,c),
(402,417,o),
(402,421,o),
(402,424,c),
(302,431,o),
(201,438,o),
(101,445,c),
(101,742,l),
(540,743,l),
(540,800,l),
(30,800,l),
(30,0,l)
);
}
);
width = 570;
},
{
layerId = m003;
shapes = (
{
closed = 1;
nodes = (
(580,0,l),
(580,74,l),
(153,74,l),
(153,381,l),
(245,391,o),
(327,442,o),
(428,454,c),
(428,427,o),
(428,400,o),
(428,373,c),
(327,392,o),
(265,443,o),
(153,445,c),
(153,729,l),
(580,730,l),
(580,800,l),
(40,800,l),
(40,0,l)
);
}
);
width = 620;
},
{
layerId = m004;
shapes = (
{
closed = 1;
nodes = (
(620,0,l),
(620,97,l),
(196,97,l),
(196,360,l),
(382,377,o),
(385,453,o),
(450,464,c),
(450,437,o),
(450,387,o),
(450,360,c),
(376,370,o),
(383,463,o),
(196,465,c),
(196,709,l),
(620,710,l),
(620,800,l),
(50,800,l),
(50,0,l)
);
}
);
width = 670;
},
{
background = {
shapes = (
{
closed = 1;
nodes = (
(644,798,l),
(60,796,l),
(60,461,l),
(60,0,l),
(644,0,l),
(644,112,l),
(248,112,l),
(248,288,l),
(248,348,l),
(476,351,l),
(476,479,l),
(248,475,l),
(247,531,l),
(247,693,l),
(644,693,l)
);
}
);
};
layerId = m005;
shapes = (
{
closed = 1;
nodes = (
(660,0,l),
(660,110,l),
(247,110,l),
(248,350,l),
(324,350,o),
(400,350,o),
(476,350,c),
(476,392,o),
(476,435,o),
(476,477,c),
(400,477,o),
(324,477,o),
(248,477,c),
(247,693,l),
(660,694,l),
(660,800,l),
(60,800,l),
(60,0,l)
);
}
);
width = 720;
}
);
unicode = (69,101);
},
{
glyphname = F;
lastChange = "2024-03-08 20:18:12 +0000";
layers = (
{
layerId = m01;
shapes = (
{
closed = 1;
nodes = (
(59,0,l),
(59,393,l),
(165,393,o),
(272,394,o),
(378,394,c),
(378,408,o),
(378,423,o),
(378,437,c),
(272,437,o),
(166,437,o),
(60,437,c),
(60,760,l),
(512,760,l),
(512,800,l),
(20,800,l),
(20,0,l)
);
}
);
width = 532;
},
{
layerId = m002;
shapes = (
{
closed = 1;
nodes = (
(101,0,l),
(101,381,l),
(201,392,o),
(302,403,o),
(402,414,c),
(402,417,o),
(402,421,o),
(402,424,c),
(302,431,o),
(201,438,o),
(101,445,c),
(101,742,l),
(530,743,l),
(530,800,l),
(30,800,l),
(30,0,l)
);
}
);
width = 560;
},
{
layerId = m003;
shapes = (
{
closed = 1;
nodes = (
(153,0,l),
(153,381,l),
(245,391,o),
(327,442,o),
(428,454,c),
(428,427,o),
(428,400,o),
(428,373,c),
(327,392,o),
(265,443,o),
(153,445,c),
(153,729,l),
(580,730,l),
(580,800,l),
(40,800,l),
(40,0,l)
);
}
);
width = 620;
},
{
layerId = m004;
shapes = (
{
closed = 1;
nodes = (
(196,0,l),
(196,360,l),
(373,377,o),
(376,453,o),
(441,464,c),
(441,437,o),
(441,387,o),
(441,360,c),
(367,370,o),
(374,463,o),
(196,465,c),
(196,709,l),
(600,710,l),
(600,800,l),
(50,800,l),
(50,0,l)
);
}
);
width = 650;
},
{
layerId = m005;
shapes = (
{
closed = 1;
nodes = (
(247,0,l),
(248,350,l),
(324,350,o),
(416,350,o),
(492,350,c),
(492,392,o),
(492,435,o),
(492,477,c),
(416,477,o),
(324,477,o),
(248,477,c),
(247,693,l),
(660,694,l),
(660,800,l),
(60,800,l),
(60,0,l)
);
}
);
width = 720;
}
);
unicode = (70,102);
},
{
glyphname = G;
lastChange = "2024-03-08 20:18:12 +0000";
layers = (
{
layerId = m01;
shapes = (
{
closed = 1;
nodes = (
(580,545,l),
(580,687,o),
(481,760,o),
(338,760,c),
(143,760,o),
(60,606,o),
(60,400,c),
(67,152,o),
(138,48,o),
(338,40,c),
(473,40,o),
(581,135,o),
(580,312,c),
(620,312,l),
(620,110,o),
(519,1,o),
(338,0,c),
(102,0,o),
(20,141,o),
(20,400,c),
(20,641,o),
(117,800,o),
(338,800,c),
(503,800,o),
(619,708,o),
(619,545,c)
);
},
{
closed = 1;
nodes = (
(439,352,l),
(439,312,l),
(580,312,l),
(581,0,l),
(620,0,l),
(620,352,l)
);
}
);
width = 640;
},
{
layerId = m002;
shapes = (
{
closed = 1;
nodes = (
(613,545,l),
(613,687,o),
(468,748,o),
(348,748,c),
(153,748,o),
(90,580,o),
(90,400,c),
(96,169,o),
(176,67,o),
(348,60,c),
(459,60,o),
(590,118,o),
(590,293,c),
(650,293,l),
(650,89,o),
(523,0,o),
(348,0,c),
(112,0,o),
(30,160,o),
(30,400,c),
(23,633,o),
(127,792,o),
(348,792,c),
(495,792,o),
(627,708,o),
(627,545,c)
);
},
{
closed = 1;
nodes = (
(469,352,l),
(469,292,l),
(590,292,l),
(591,0,l),
(650,0,l),
(650,352,l)
);
}
);
width = 680;
},
{
layerId = m003;
shapes = (
{
closed = 1;
nodes = (
(700,545,l),
(700,736,o),
(557,800,o),
(358,800,c),
(186,800,o),
(146,580,o),
(140,400,c),
(146,169,o),
(207,104,o),
(358,100,c),
(487,100,o),
(599,130,o),
(599,262,c),
(700,262,l),
(700,87,o),
(605,0,o),
(358,0,c),
(122,0,o),
(40,160,o),
(40,400,c),
(40,633,o),
(137,700,o),
(358,700,c),
(478,700,o),
(600,691,o),
(600,545,c)
);
},
{
closed = 1;
nodes = (
(519,362,l),
(519,262,l),
(599,262,l),
(600,0,l),
(700,0,l),
(700,362,l)
);
}
);
width = 740;
},
{
layerId = m004;
shapes = (
{
closed = 1;
nodes = (
(750,535,l),
(750,744,o),
(607,800,o),
(408,800,c),
(117,800,o),
(50,580,o),
(50,400,c),
(50,169,o),
(261,150,o),
(368,150,c),
(497,150,o),
(591,186,o),
(600,242,c),
(750,242,l),
(750,130,o),
(615,0,o),
(368,0,c),
(187,0,o),
(210,192,o),
(217,400,c),
(234,622,o),
(322,650,o),
(408,650,c),
(433,650,o),
(600,660,o),
(600,535,c)
);
},
{
closed = 1;
nodes = (
(479,382,l),
(479,242,l),
(600,242,l),
(601,0,l),
(750,0,l),
(750,382,l)
);
}
);
width = 800;
},
{
layerId = m005;
shapes = (
{
closed = 1;
nodes = (
(810,510,l),
(810,719,o),
(657,800,o),
(423,800,c),
(167,800,o),
(60,562,o),
(60,400,c),
(60,-18,o),
(423,0,o),
(423,0,c),
(714,0,o),
(810,145,o),
(810,306,c),
(641,306,l),
(641,209,o),
(542,156,o),
(423,156,c),
(379,156,o),
(227,185,o),
(230,400,c),
(230,633,o),
(423,636,o),
(423,636,c),
(481,636,o),
(636,632,o),
(641,510,c)
);
},
{
closed = 1;
nodes = (
(539,401,l),
(539,252,l),
(629,252,l),
(630,0,l),
(810,0,l),
(810,401,l)
);
}
);
width = 870;
}
);
unicode = (71,103);
},
{
glyphname = H;
lastChange = "2024-03-11 00:24:52 +0000";
layers = (
{
layerId = m01;
shapes = (
{
closed = 1;
nodes = (
(20,0,l),
(60,0,l),
(60,131,o),
(60,263,o),
(60,394,c),
(233,394,o),
(407,394,o),
(580,394,c),
(580,0,l),
(620,0,l),
(620,800,l),
(580,800,l),
(580,434,l),
(407,434,o),
(233,434,o),
(60,434,c),
(60,800,l),
(20,800,l)
);
}
);
width = 640;
},
{
background = {
shapes = (
{
closed = 1;
nodes = (
(459,805,l),
(459,763,l),
(543,755,l),
(554,738,l),
(554,441,l),
(109,441,l),
(109,738,l),
(118,755,l),
(202,763,l),
(202,805,l),
(-64,805,l),
(-64,763,l),
(20,755,l),
(30,738,l),
(30,67,l),
(20,50,l),
(-65,42,l),
(-65,0,l),
(203,0,l),
(203,42,l),
(119,50,l),
(109,67,l),
(109,394,l),
(554,394,l),
(554,67,l),
(543,50,l),
(458,42,l),
(458,0,l),
(726,0,l),
(726,42,l),
(642,50,l),
(631,67,l),
(631,738,l),
(641,755,l),
(725,763,l),
(725,805,l)
);
}
);
};
layerId = m002;
shapes = (
{
closed = 1;
nodes = (
(30,0,l),
(90,0,l),
(90,139,o),
(90,278,o),
(90,417,c),
(257,407,o),
(423,397,o),
(590,387,c),
(590,0,l),
(650,0,l),
(650,800,l),
(590,800,l),
(590,447,l),
(423,438,o),
(257,428,o),
(90,419,c),
(90,800,l),
(30,799,l)
);
}
);
width = 680;
},
{
layerId = m003;
shapes = (
{
closed = 1;
nodes = (
(40,0,l),
(140,0,l),
(140,150,o),
(140,309,o),
(140,470,c),
(358,470,o),
(404,378,o),
(600,370,c),
(600,0,l),
(700,0,l),
(700,800,l),
(600,800,l),
(600,470,l),
(407,470,o),
(360,377,o),
(140,370,c),
(140,800,l),
(40,799,l)
);
}
);
width = 740;
},
{
layerId = m004;
shapes = (
{
closed = 1;
nodes = (
(50,0,l),
(200,0,l),
(200,150,o),
(200,307,o),
(200,481,c),
(278,480,o),
(292,351,o),
(600,351,c),
(600,0,l),
(750,0,l),
(750,800,l),
(600,800,l),
(600,481,l),
(292,481,o),
(273,351,o),
(200,351,c),
(200,800,l),
(50,799,l)
);
}
);
width = 800;
},
{
layerId = m005;
shapes = (
{
closed = 1;
nodes = (
(60,0,l),
(260,0,l),
(260,150,o),
(260,177,o),
(260,351,c),
(377,351,o),
(493,351,o),
(610,351,c),
(610,0,l),
(810,0,l),
(810,800,l),
(610,800,l),
(610,481,l),
(493,481,o),
(377,481,o),
(260,481,c),
(260,800,l),
(60,799,l)
);
}
);
width = 870;
}
);
unicode = (72,104);
},
{
glyphname = I;
lastChange = "2024-03-08 20:18:12 +0000";
layers = (
{
layerId = m01;
shapes = (
{
closed = 1;
nodes = (
(59,266,o),
(59,533,o),
(58,799,c),
(46,799,o),
(32,799,o),
(20,799,c),
(20,533,o),
(20,266,o),
(20,0,c),
(33,0,o),
(47,0,o),
(60,0,c)
);
}
);
width = 80;
},
{
layerId = m002;
shapes = (
{
closed = 1;
nodes = (
(93,266,o),
(82,533,o),
(70,799,c),
(66,799,o),
(63,799,o),
(59,799,c),
(49,533,o),
(40,266,o),
(30,0,c),
(55,0,o),
(80,0,o),
(105,0,c)
);
}
);
width = 135;
},
{
layerId = m003;
shapes = (
{
closed = 1;
nodes = (
(171,221,o),
(20,445,o),
(42,800,c),
(82,800,o),
(116,803,o),
(156,800,c),
(175,524,o),
(25,250,o),
(42,0,c),
(43,0,o),
(98,2,o),
(156,0,c)
);
}
);
width = 198;
},
{
layerId = m004;
shapes = (
{
closed = 1;
nodes = (
(207,208,o),
(15,158,o),
(55,800,c),
(95,800,o),
(166,803,o),
(206,800,c),
(206,179,o),
(56,201,o),
(55,0,c),
(56,0,o),
(149,2,o),
(207,0,c)
);
}
);
width = 257;
},
{
layerId = m005;
shapes = (
{
closed = 1;
nodes = (
(61,156,o),
(60,167,o),
(60,800,c),
(100,800,o),
(167,803,o),
(207,800,c),
(211,181,o),
(210,201,o),
(209,0,c),
(141,0,o),
(95,1,o),
(61,1,c)
);
}
);
width = 270;
}
);
unicode = (73,105);
},
{
glyphname = J;
lastChange = "2024-03-08 20:18:12 +0000";
layers = (
{
layerId = m01;
shapes = (
{
closed = 1;
nodes = (
(420,800,l),
(420,193,l),
(422,58,o),
(318,0,o),
(222,0,c),
(145,0,o),
(57,31,o),
(20,120,c),
(50,146,l),
(90,62,o),
(145,40,o),
(222,40,c),
(318,43,o),
(380,97,o),
(380,191,c),
(381,800,l)
);
}
);
width = 440;
},
{
layerId = m002;
shapes = (
{
closed = 1;
nodes = (
(450,800,l),
(450,193,l),
(452,58,o),
(328,0,o),
(232,0,c),
(155,0,o),
(61,60,o),
(30,142,c),
(40,150,l),
(77,73,o),
(155,60,o),
(232,60,c),
(328,63,o),
(390,97,o),
(390,191,c),
(391,800,l)
);
}
);
width = 480;
},
{
layerId = m003;
shapes = (
{
closed = 1;
nodes = (
(500,800,l),
(500,193,l),
(500,78,o),
(358,51,o),
(256,70,c),
(201,84,o),
(153,126,o),
(126,198,c),
(40,141,l),
(75,58,o),
(179,0,o),
(256,0,c),
(356,0,o),
(400,96,o),
(400,191,c),
(400,800,l)
);
}
);
width = 540;
},
{
layerId = m004;
shapes = (
{
closed = 1;
nodes = (
(550,800,l),
(550,223,l),
(550,65,o),
(398,0,o),
(268,0,c),
(160,0,o),
(127,119,o),
(157,281,c),
(50,184,l),
(90,154,o),
(123,114,o),
(266,117,c),
(301,117,o),
(410,134,o),
(410,221,c),
(410,800,l)
);
}
);
width = 600;
},
{
layerId = m005;
shapes = (
{
closed = 1;
nodes = (
(610,800,l),
(610,253,l),
(610,85,o),
(508,0,o),
(328,0,c),
(136,0,o),
(60,141,o),
(60,278,c),
(212,278,l),
(212,208,o),
(232,150,o),
(326,150,c),
(415,150,o),
(410,226,o),
(410,251,c),
(410,800,l)
);
}
);
width = 670;
}
);
unicode = (74,106);
},
{
glyphname = K;
lastChange = "2024-03-08 20:18:12 +0000";
layers = (
{
layerId = m01;
shapes = (
{
closed = 1;
nodes = (
(60,5,l),
(60,310,l),
(182,438,l),
(279,292,o),
(375,146,o),
(472,0,c),
(520,0,l),
(417,155,o),
(314,311,o),
(211,466,c),
(314,577,o),
(416,689,o),
(519,800,c),
(466,800,l),
(331,658,o),
(195,515,o),
(60,373,c),
(60,800,l),
(20,800,l),
(21,0,l),
(60,0,l)
);
}
);
width = 540;
},
{
layerId = m002;
shapes = (
{
closed = 1;
nodes = (
(90,5,l),
(90,306,l),
(193,416,l),
(289,277,o),
(386,139,o),
(482,0,c),
(550,0,l),
(445,156,o),
(340,311,o),
(235,467,c),
(325,578,o),
(416,689,o),
(506,800,c),
(493,800,l),
(359,664,o),
(224,527,o),
(90,391,c),
(90,800,l),
(30,800,l),
(31,0,l),
(90,0,l)
);
}
);
width = 580;
},
{
layerId = m003;
shapes = (
{
closed = 1;
nodes = (
(140,5,l),
(140,306,l),
(208,370,l),
(295,247,o),
(383,123,o),
(470,0,c),
(580,0,l),
(475,146,o),
(370,293,o),
(265,439,c),
(398,578,o),
(345,672,o),
(470,800,c),
(580,800,l),
(433,607,o),
(306,619,o),
(141,431,c),
(140,800,l),
(40,800,l),
(41,0,l),
(140,0,l)
);
}
);
width = 620;
},
{
layerId = m004;
shapes = (
{
closed = 1;
nodes = (
(200,5,l),
(200,306,l),
(239,345,l),
(376,230,o),
(539,182,o),
(650,0,c),
(530,0,l),
(432,136,o),
(448,260,o),
(323,409,c),
(432,539,o),
(541,670,o),
(650,800,c),
(500,800,l),
(401,684,o),
(302,567,o),
(203,451,c),
(200,800,l),
(50,800,l),
(51,0,l),
(200,0,l)
);
}
);
width = 700;
},
{
layerId = m005;
shapes = (
{
closed = 1;
nodes = (
(241,5,l),
(243,291,l),
(255,291,l),
(328,194,o),
(400,97,o),
(473,0,c),
(700,0,l),
(591,140,o),
(482,279,o),
(373,419,c),
(482,549,o),
(591,670,o),
(700,800,c),
(498,800,l),
(401,684,o),
(343,617,o),
(244,501,c),
(241,800,l),
(60,800,l),
(61,0,l),
(241,0,l)
);
}
);
width = 760;
}
);
unicode = (75,107);
},
{
glyphname = L;
lastChange = "2024-03-08 20:18:12 +0000";
layers = (
{
layerId = m01;
shapes = (
{
closed = 1;
nodes = (
(20,533,o),
(20,267,o),
(20,0,c),
(187,0,o),
(353,0,o),
(520,0,c),
(520,40,l),
(367,40,o),
(213,41,o),
(60,41,c),
(60,294,o),
(60,547,o),
(60,800,c),
(20,800,l)
);
}
);
width = 540;
},
{
layerId = m002;
shapes = (
{
closed = 1;
nodes = (
(43,533,o),
(37,267,o),
(30,0,c),
(203,0,o),
(377,0,o),
(550,0,c),
(550,60,l),
(397,60,o),
(243,61,o),
(90,61,c),
(79,307,o),
(67,554,o),
(56,800,c),
(50,800,l)
);
}
);
width = 580;
},
{
layerId = m003;
shapes = (
{
closed = 1;
nodes = (
(140,476,o),
(40,291,o),
(40,0,c),
(220,0,o),
(400,0,o),
(580,0,c),
(580,100,l),
(434,100,o),
(288,100,o),
(142,100,c),
(140,348,o),
(40,467,o),
(40,800,c),
(140,800,l)
);
}
);
width = 620;
},
{
layerId = m004;
shapes = (
{
closed = 1;
nodes = (
(200,476,o),
(200,436,o),
(200,145,c),
(367,140,o),
(410,0,o),
(630,0,c),
(630,150,l),
(420,141,o),
(328,0,o),
(50,0,c),
(50,248,o),
(50,467,o),
(50,800,c),
(200,800,l)
);
}
);
width = 680;
},
{
layerId = m005;
shapes = (
{
closed = 1;
nodes = (
(230,476,o),
(230,481,o),
(230,190,c),
(373,190,o),
(517,190,o),
(660,190,c),
(660,0,l),
(460,0,o),
(260,0,o),
(60,0,c),
(60,248,o),
(60,467,o),
(60,800,c),
(230,800,l)
);
}
);
width = 720;
}
);
unicode = (76,108);
},
{
glyphname = M;
lastChange = "2024-03-08 20:18:12 +0000";
layers = (
{
layerId = m01;
shapes = (
{
closed = 1;
nodes = (
(40,533,o),
(40,267,o),
(40,0,c),
(53,0,o),
(65,0,o),
(78,0,c),
(78,239,o),
(78,479,o),
(78,718,c),
(382,0,l),
(417,0,l),
(742,723,l),
(742,0,l),
(780,0,l),
(780,800,l),
(735,800,l),
(400,54,l),
(85,800,l),
(40,800,l)
);
}
);
width = 820;
},
{
layerId = m002;
shapes = (
{
closed = 1;
nodes = (
(67,533,o),
(58,267,o),
(50,0,c),
(70,0,o),
(90,0,o),
(110,0,c),
(103,225,o),
(97,449,o),
(90,674,c),
(382,0,l),
(443,0,l),
(750,674,l),
(750,0,l),
(810,0,l),
(810,800,l),
(743,800,l),
(420,94,l),
(82,800,l),
(75,800,l)
);
}
);
width = 860;
},
{
layerId = m003;
shapes = (
{
closed = 1;
nodes = (
(47,444,o),
(146,266,o),
(146,-1,c),
(118,-1,o),
(91,-1,o),
(63,-1,c),
(56,266,o),
(127,399,o),
(145,639,c),
(394,0,l),
(477,0,l),
(778,641,l),
(776,0,l),
(860,0,l),
(860,800,l),
(769,800,l),
(450,144,l),
(146,800,l),
(62,800,l)
);
}
);
width = 920;
},
{
background = {
shapes = (
{
closed = 1;
nodes = (
(4207,-1332,l),
(3932,-1915,l),
(3615,-1335,l),
(3575,-1332,o),
(3549,-1335,o),
(3509,-1335,c),
(3496,-1736,o),
(3518,-1867,o),
(3561,-1951,c),
(3591,-1880,o),
(3625,-1785,o),
(3627,-1589,c),
(3831,-2135,l),
(3936,-2135,l),
(4219,-1497,l),
(4213,-2135,l),
(4324,-2135,l),
(4324,-1332,l)
);
},
{
closed = 1;
nodes = (
(3622,-2047,o),
(3592,-2013,o),
(3561,-1951,c),
(3534,-2013,o),
(3510,-2057,o),
(3509,-2135,c),
(3510,-2135,o),
(3558,-2133,o),
(3616,-2135,c)
);
}
);
};
layerId = m004;
shapes = (
{
closed = 1;
nodes = (
(45,103,o),
(180,207,o),
(185,0,c),
(148,0,o),
(111,0,o),
(74,0,c),
(74,172,o),
(201,186,o),
(196,546,c),
(409,0,l),
(514,0,l),
(785,638,l),
(779,0,l),
(890,0,l),
(890,800,l),
(772,800,l),
(510,220,l),
(239,800,l),
(74,800,l)
);
}
);
width = 960;
},
{
layerId = m005;
shapes = (
{
closed = 1;
nodes = (
(80,533,o),
(80,267,o),
(80,0,c),
(126,0,o),
(172,0,o),
(218,0,c),
(218,210,o),
(218,421,o),
(218,631,c),
(476,0,l),
(540,0,l),
(769,624,l),
(769,0,l),
(959,0,l),
(960,802,l),
(715,802,l),
(544,327,l),
(361,802,l),
(80,800,l)
);
}
);
width = 1040;
}
);
unicode = (77,109);
},
{
glyphname = N;
lastChange = "2024-03-08 20:18:12 +0000";
layers = (
{
layerId = m01;
shapes = (
{
closed = 1;
nodes = (
(40,533,o),
(40,267,o),
(40,0,c),
(53,0,o),
(65,0,o),
(78,0,c),
(78,248,o),
(77,496,o),
(77,744,c),
(604,0,l),
(660,0,l),
(660,800,l),
(623,800,l),
(623,41,l),
(96,800,l),
(40,800,l)
);
}
);
width = 700;
},
{
layerId = m002;
shapes = (
{
closed = 1;
nodes = (
(67,533,o),
(59,267,o),
(50,0,c),
(69,0,o),
(87,0,o),
(106,0,c),
(102,235,o),
(99,469,o),
(95,704,c),
(599,0,l),
(690,0,l),
(690,800,l),
(634,800,l),
(634,89,l),
(81,800,l),
(76,800,l)
);
}
);
width = 740;
},
{
layerId = m003;
shapes = (
{
closed = 1;
nodes = (
(53,465,o),
(137,267,o),
(137,0,c),
(113,0,o),
(88,0,o),
(64,0,c),
(70,223,o),
(114,438,o),
(139,657,c),
(613,0,l),
(740,0,l),
(734,800,l),
(658,800,l),
(658,131,l),
(138,800,l),
(60,800,l)
);
}
);
width = 800;
},
{
layerId = m004;
shapes = (
{
closed = 1;
nodes = (
(50,252,o),
(173,188,o),
(173,0,c),
(141,0,o),
(109,0,o),
(77,0,c),
(81,191,o),
(185,236,o),
(174,631,c),
(608,0,l),
(770,1,l),
(770,800,l),
(676,800,l),
(675,182,l),
(172,800,l),
(73,800,l)
);
}
);
width = 840;
},
{
layerId = m005;
shapes = (
{
closed = 1;
nodes = (
(80,533,o),
(80,267,o),
(80,0,c),
(120,0,o),
(161,0,o),
(201,0,c),
(201,201,o),
(201,401,o),
(201,602,c),
(614,0,l),
(810,0,l),
(810,800,l),
(685,801,l),
(693,245,l),
(294,800,l),
(80,800,l)
);
}
);
width = 890;
}
);
unicode = (78,110);
},
{
glyphname = O;
lastChange = "2024-03-10 19:23:42 +0000";
layers = (
{
layerId = m01;
shapes = (
{
closed = 1;
nodes = (
(97,800,o),
(0,560,o),
(0,400,c),
(0,98,o),
(197,0,o),
(344,0,c),
(516,0,o),
(680,154,o),
(680,400,c),
(680,606,o),
(585,801,o),
(338,801,c)
);
},
{
attr = {
mask = "1";
};
closed = 1;
nodes = (
(146,761,o),
(40,543,o),
(40,400,c),
(40,163,o),
(213,40,o),
(343,40,c),
(486,40,o),
(640,203,o),
(640,400,c),
(640,521,o),
(573,762,o),
(339,761,c)
);
}
);
width = 680;
},
{
layerId = m002;
shapes = (
{
closed = 1;
nodes = (
(101,800,o),
(0,560,o),
(0,400,c),
(0,107,o),
(200,0,o),
(370,0,c),
(570,0,o),
(700,154,o),
(700,400,c),
(700,606,o),
(589,801,o),
(342,801,c)
);
},
{
attr = {
mask = "1";
};
closed = 1;
nodes = (
(127,771,o),
(20,561,o),
(20,423,c),
(20,182,o),
(200,77,o),
(338,77,c),
(494,77,o),
(619,234,o),
(619,423,c),
(619,540,o),
(538,772,o),
(312,771,c)
);
}
);
width = 700;
},
{
layerId = m003;
shapes = (
{
closed = 1;
nodes = (
(89,800,o),
(0,561,o),
(0,401,c),
(0,54,o),
(241,4,o),
(380,0,c),
(590,0,o),
(760,154,o),
(760,400,c),
(760,606,o),
(645,800,o),
(371,800,c)
);
},
{
attr = {
mask = "1";
};
closed = 1;
nodes = (
(116,699,o),
(27,476,o),
(27,342,c),
(27,121,o),
(214,18,o),
(371,18,c),
(477,24,o),
(681,93,o),
(681,346,c),
(681,552,o),
(563,702,o),
(343,701,c)
);
}
);
width = 760;
},
{
layerId = m004;
shapes = (
{
closed = 1;
nodes = (
(107,800,o),
(0,590,o),
(0,400,c),
(0,76,o),
(250,0,o),
(409,0,c),
(581,0,o),
(780,117,o),
(780,400,c),
(780,632,o),
(651,800,o),
(404,800,c)
);
},
{
attr = {
mask = "1";
};
closed = 1;
nodes = (
(230,700,o),
(100,565,o),
(100,400,c),
(100,173,o),
(285,100,o),
(409,100,c),
(555,105,o),
(758,173,o),
(758,400,c),
(758,565,o),
(630,701,o),
(410,700,c)
);
}
);
width = 780;
},
{
layerId = m005;
shapes = (
{
closed = 1;
nodes = (
(83,800,o),
(0,590,o),
(0,400,c),
(0,76,o),
(246,0,o),
(393,0,c),
(577,0,o),
(800,83,o),
(800,400,c),
(800,606,o),
(672,800,o),
(393,800,c)
);
},
{
attr = {
mask = "1";
};
closed = 1;
nodes = (
(243,647,o),
(146,545,o),
(146,396,c),
(146,211,o),
(292,145,o),
(393,145,c),
(523,150,o),
(653,202,o),
(653,396,c),
(653,545,o),
(565,652,o),
(393,647,c)
);
}
);
width = 800;
}
);
unicode = (79,111);
},
{
glyphname = P;
lastChange = "2024-03-11 00:25:32 +0000";
layers = (
{
layerId = m01;
shapes = (
{
closed = 1;
nodes = (
(60,327,l),
(223,328,l),
(371,328,o),
(470,420,o),
(470,549,c),
(470,697,o),
(395,800,o),
(227,800,c),
(20,800,l),
(20,0,l),
(61,0,l),
(59,760,l),
(221,759,l),
(390,760,o),
(430,646,o),
(430,548,c),
(430,437,o),
(336,371,o),
(221,368,c),
(60,367,l)
);
}
);
width = 490;
},
{
background = {
shapes = (
{
closed = 1;
nodes = (
(77,743,l),
(270,743,l),
(281,742,o),
(456,758,o),
(453,555,c),
(452,491,o),
(420,448,o),
(384,414,c),
(326,360,o),
(272,368,o),
(256,368,c),
(93,367,l)
);
},
{
closed = 1;
nodes = (
(305,312,l),
(339,316,o),
(398,325,o),
(445,373,c),
(485,413,o),
(531,471,o),
(530,555,c),
(527,818,o),
(274,801,o),
(272,801,c),
(154,801,l),
(63,801,l),
(30,0,l),
(111,0,l),
(95,312,l),
(244,311,l)
);
}
);
};
layerId = m002;
shapes = (
{
closed = 1;
nodes = (
(90,312,l),
(230,311,l),
(394,311,o),
(488,427,o),
(500,549,c),
(504,672,o),
(431,771,o),
(234,800,c),
(30,800,l),
(30,0,l),
(91,0,l),
(89,740,l),
(227,740,l),
(450,750,o),
(456,644,o),
(437,549,c),
(421,453,o),
(378,379,o),
(228,371,c),
(90,372,l)
);
}
);
width = 530;
},
{
background = {
shapes = (
{
closed = 1;
nodes = (
(356,373,o),
(284,374,o),
(268,373,c),
(99,375,l),
(129,488,o),
(159,603,o),
(164,719,c),
(276,719,l),
(287,718,o),
(468,738,o),
(469,553,c),
(469,489,o),
(434,439,o),
(396,407,c)
);
},
{
closed = 1;
nodes = (
(573,839,o),
(311,797,o),
(282,801,c),
(282,801,o),
(78,800,o),
(42,800,c),
(31,630,o),
(62,490,o),
(96,366,c),
(96,363,l),
(64,238,o),
(34,116,o),
(42,0,c),
(43,0,o),
(106,2,o),
(164,0,c),
(170,95,o),
(145,190,o),
(115,297,c),
(320,293,l),
(380,293,o),
(423,306,o),
(476,347,c),
(520,381,o),
(588,466,o),
(585,549,c)
);
}
);
};
layerId = m003;
shapes = (
{
closed = 1;
nodes = (
(140,374,l),
(279,374,l),
(381,373,o),
(457,435,o),
(469,544,c),
(473,667,o),
(475,762,o),
(279,800,c),
(40,800,l),
(40,0,l),
(141,0,l),
(140,720,l),
(271,720,l),
(521,737,o),
(570,643,o),
(570,546,c),
(561,419,o),
(471,293,o),
(315,294,c),
(140,294,l)
);
}
);
width = 610;
},
{
background = {
shapes = (
{
closed = 1;
nodes = (
(487,499,o),
(465,450,o),
(445,430,c),
(408,393,o),
(338,387,o),
(322,386,c),
(195,385,l),
(212,462,o),
(224,563,o),
(223,701,c),
(342,700,l),
(353,699,o),
(490,685,o),
(488,553,c)
);
},
{
closed = 1;
nodes = (
(630,824,o),
(369,797,o),
(341,800,c),
(341,800,o),
(95,800,o),
(55,800,c),
(33,451,o),
(84,307,o),
(135,215,c),
(145,235,o),
(155,256,o),
(164,281,c),
(382,281,l),
(429,281,o),
(517,312,o),
(551,343,c),
(592,380,o),
(647,465,o),
(643,549,c)
);
},
{
closed = 1;
nodes = (
(220,96,o),
(178,137,o),
(135,215,c),
(95,136,o),
(56,90,o),
(55,0,c),
(56,0,o),
(162,2,o),
(220,0,c)
);
}
);
};
layerId = m004;
shapes = (
{
closed = 1;
nodes = (
(199,381,l),
(294,381,l),
(396,381,o),
(620,344,o),
(630,539,c),
(627,706,o),
(555,807,o),
(294,800,c),
(50,800,l),
(50,0,l),
(199,0,l),
(200,701,l),
(296,701,l),
(459,701,o),
(488,640,o),
(488,543,c),
(479,416,o),
(503,315,o),
(330,281,c),
(199,281,l)
);
}
);
width = 680;
},
{
background = {
shapes = (
{
closed = 1;
nodes = (
(270,668,l),
(323,668,l),
(334,668,o),
(507,694,o),
(498,531,c),
(494,467,o),
(448,422,o),
(430,414,c),
(369,387,o),
(324,391,o),
(323,391,c),
(270,391,l)
);
},
{
closed = 1;
nodes = (
(568,305,o),
(612,334,o),
(644,373,c),
(678,415,o),
(694,478,o),
(691,550,c),
(684,786,o),
(420,801,o),
(418,801,c),
(220,801,l),
(62,801,l),
(60,0,l),
(270,0,l),
(270,266,l),
(270,266,o),
(261,269,o),
(323,266,c),
(398,268,o),
(430,268,o),
(496,282,c)
);
}
);
};
layerId = m005;
shapes = (
{
closed = 1;
nodes = (
(261,266,l),
(385,267,l),
(530,267,o),
(685,335,o),
(680,547,c),
(673,706,o),
(576,800,o),
(304,800,c),
(60,799,l),
(60,0,l),
(260,0,l),
(261,668,l),
(319,668,l),
(438,674,o),
(489,632,o),
(489,548,c),
(489,421,o),
(451,404,o),
(347,391,c),
(261,391,l)
);
}
);
width = 740;
}
);
unicode = (80,112);
},
{
glyphname = Q;
lastChange = "2024-03-08 20:18:12 +0000";
layers = (
{
layerId = m01;
shapes = (
{
closed = 1;
nodes = (
(117,800,o),
(20,560,o),
(20,400,c),
(20,98,o),
(217,0,o),
(364,0,c),
(536,0,o),
(700,154,o),
(700,400,c),
(700,606,o),
(605,801,o),
(358,801,c)
);
},
{
attr = {
mask = "1";
};
closed = 1;
nodes = (
(166,761,o),
(60,543,o),
(60,400,c),
(60,163,o),
(233,40,o),
(363,40,c),
(506,40,o),
(660,203,o),
(660,400,c),
(660,521,o),
(593,762,o),
(359,761,c)
);
},
{
closed = 1;
nodes = (
(650,0,l),
(333,328,l),
(384,328,l),
(700,0,l)
);
}
);
width = 720;
},
{
layerId = m002;
shapes = (
{
closed = 1;
nodes = (
(131,800,o),
(30,560,o),
(30,400,c),
(30,107,o),
(230,0,o),
(400,0,c),
(600,0,o),
(730,154,o),
(730,400,c),
(730,606,o),
(619,801,o),
(372,801,c)
);
},
{
attr = {
mask = "1";
};
closed = 1;
nodes = (
(157,771,o),
(50,561,o),
(50,423,c),
(50,182,o),
(230,77,o),
(368,77,c),
(524,77,o),
(649,234,o),
(649,423,c),
(649,540,o),
(568,772,o),
(342,771,c)
);
},
{
closed = 1;
nodes = (
(650,0,l),
(333,311,l),
(414,311,l),
(730,0,l)
);
}
);
width = 760;
},
{
layerId = m003;
shapes = (
{
closed = 1;
nodes = (
(129,800,o),
(40,561,o),
(40,401,c),
(40,54,o),
(281,4,o),
(420,0,c),
(630,0,o),
(800,154,o),
(800,400,c),
(800,606,o),
(685,800,o),
(411,800,c)
);
},
{
attr = {
mask = "1";
};
closed = 1;
nodes = (
(156,699,o),
(67,476,o),
(67,342,c),
(67,121,o),
(254,18,o),
(411,18,c),
(517,24,o),
(721,93,o),
(721,346,c),
(721,552,o),
(603,702,o),
(383,701,c)
);
},
{
closed = 1;
nodes = (
(650,0,l),
(330,294,l),
(480,294,l),
(800,0,l)
);
}
);
width = 840;
},
{
layerId = m004;
shapes = (
{
closed = 1;
nodes = (
(157,800,o),
(50,590,o),
(50,400,c),
(50,76,o),
(300,0,o),
(459,0,c),
(631,0,o),
(830,117,o),
(830,400,c),
(830,632,o),
(701,800,o),
(454,800,c)
);
},
{
attr = {
mask = "1";
};
closed = 1;
nodes = (
(280,700,o),
(150,565,o),
(150,400,c),
(150,173,o),
(335,100,o),
(459,100,c),
(605,105,o),
(808,173,o),
(808,400,c),
(808,565,o),
(680,701,o),
(460,700,c)
);
},
{
closed = 1;
nodes = (
(660,0,l),
(359,289,l),
(525,289,l),
(830,0,l)
);
}
);
width = 880;
},
{
layerId = m005;
shapes = (
{
closed = 1;
nodes = (
(143,800,o),
(60,590,o),
(60,400,c),
(60,76,o),
(306,0,o),
(453,0,c),
(637,0,o),
(860,83,o),
(860,400,c),
(860,606,o),
(732,800,o),
(453,800,c)
);
},
{
attr = {
mask = "1";
};
closed = 1;
nodes = (
(303,647,o),
(206,545,o),
(206,396,c),
(206,211,o),
(352,145,o),
(453,145,c),
(583,150,o),
(713,202,o),
(713,396,c),
(713,545,o),
(625,652,o),
(453,647,c)
);
},
{
closed = 1;
nodes = (
(659,0,l),
(391,270,l),
(591,270,l),
(860,0,l)
);
}
);
width = 920;
}
);
unicode = (81,113);
},
{
glyphname = R;
lastChange = "2024-03-08 20:18:12 +0000";
layers = (
{
layerId = m01;
shapes = (
{
closed = 1;
nodes = (
(60,327,l),
(223,328,l),
(371,328,o),
(470,420,o),
(470,549,c),
(470,697,o),
(395,800,o),
(227,800,c),
(20,800,l),
(20,0,l),
(61,0,l),
(59,760,l),
(221,759,l),
(390,760,o),
(430,646,o),
(430,548,c),
(430,437,o),
(336,371,o),
(221,368,c),
(60,368,l)
);
},
{
closed = 1;
nodes = (
(470,0,l),
(115,368,l),
(165,368,l),
(520,0,l)
);
}
);
width = 540;
},
{
layerId = m002;
shapes = (
{
closed = 1;
nodes = (
(90,312,l),
(230,311,l),
(394,311,o),
(488,427,o),
(500,549,c),
(504,672,o),
(431,771,o),
(234,800,c),
(30,800,l),
(30,0,l),
(91,0,l),
(89,740,l),
(227,740,l),
(450,750,o),
(456,644,o),
(437,549,c),
(421,453,o),
(378,379,o),
(228,372,c),
(90,372,l)
);
},
{
closed = 1;
nodes = (
(460,0,l),
(103,372,l),
(184,372,l),
(540,0,l)
);
}
);
width = 570;
},
{
layerId = m003;
shapes = (
{
closed = 1;
nodes = (
(140,374,l),
(279,374,l),
(381,373,o),
(457,435,o),
(469,544,c),
(473,667,o),
(475,762,o),
(279,800,c),
(40,800,l),
(40,0,l),
(141,0,l),
(140,720,l),
(271,720,l),
(521,737,o),
(570,643,o),
(570,546,c),
(561,419,o),
(471,293,o),
(315,294,c),
(140,294,l)
);
},
{
closed = 1;
nodes = (
(460,0,l),
(141,375,l),
(289,375,l),
(610,0,l)
);
}
);
width = 650;
},
{
layerId = m004;
shapes = (
{
closed = 1;
nodes = (
(199,381,l),
(294,381,l),
(384,386,o),
(620,344,o),
(630,539,c),
(627,706,o),
(555,807,o),
(294,800,c),
(50,800,l),
(50,0,l),
(199,0,l),
(200,701,l),
(296,701,l),
(459,701,o),
(488,640,o),
(488,543,c),
(479,416,o),
(514,299,o),
(330,281,c),
(199,281,l)
);
},
{
closed = 1;
nodes = (
(500,0,l),
(199,329,l),
(365,329,l),
(670,0,l)
);
}
);
width = 720;
},
{
layerId = m005;
shapes = (
{
closed = 1;
nodes = (
(261,266,l),
(385,267,l),
(530,267,o),
(685,335,o),
(680,547,c),
(673,706,o),
(576,800,o),
(304,800,c),
(60,799,l),
(60,0,l),
(260,0,l),
(261,668,l),
(319,668,l),
(438,674,o),
(489,632,o),
(489,548,c),
(489,421,o),
(451,404,o),
(347,391,c),
(261,391,l)
);
},
{
closed = 1;
nodes = (
(539,0,l),
(261,266,l),
(468,274,l),
(760,0,l)
);
}
);
width = 820;
}
);
unicode = (82,114);
},
{
glyphname = S;
lastChange = "2024-03-11 00:25:19 +0000";
layers = (
{
layerId = m01;
shapes = (
{
closed = 1;
nodes = (
(480,605,l),
(480,706,o),
(383,759,o),
(262,760,c),
(126,760,o),
(61,681,o),
(60,599,c),
(60,379,o),
(520,468,o),
(520,221,c),
(520,91,o),
(442,0,o),
(262,0,c),
(149,0,o),
(20,69,o),
(20,244,c),
(60,244,l),
(60,125,o),
(146,47,o),
(262,40,c),
(379,40,o),
(480,99,o),
(480,221,c),
(476,417,o),
(20,354,o),
(20,599,c),
(20,731,o),
(135,800,o),
(262,800,c),
(398,799,o),
(520,736,o),
(520,605,c)
);
}
);
width = 540;
},
{
layerId = m002;
shapes = (
{
closed = 1;
nodes = (
(525,605,l),
(525,706,o),
(408,759,o),
(287,760,c),
(151,760,o),
(91,681,o),
(90,599,c),
(90,387,o),
(550,468,o),
(550,221,c),
(550,91,o),
(467,0,o),
(287,0,c),
(174,0,o),
(30,69,o),
(30,244,c),
(90,244,l),
(90,125,o),
(171,67,o),
(287,60,c),
(404,60,o),
(490,99,o),
(490,221,c),
(486,417,o),
(30,334,o),
(30,599,c),
(30,731,o),
(160,800,o),
(287,800,c),
(423,799,o),
(535,736,o),
(535,605,c)
);
}
);
width = 580;
},
{
layerId = m003;
shapes = (
{
closed = 1;
nodes = (
(600,605,l),
(600,769,o),
(441,800,o),
(306,800,c),
(142,807,o),
(41,700,o),
(40,599,c),
(40,387,o),
(600,508,o),
(600,241,c),
(600,111,o),
(498,0,o),
(297,0,c),
(170,0,o),
(40,94,o),
(40,247,c),
(140,247,l),
(140,165,o),
(189,100,o),
(297,100,c),
(399,100,o),
(502,119,o),
(502,241,c),
(493,388,o),
(141,334,o),
(141,599,c),
(152,684,o),
(213,710,o),
(306,710,c),
(416,710,o),
(500,691,o),
(500,605,c)
);
}
);
width = 640;
},
{
layerId = m004;
shapes = (
{
closed = 1;
nodes = (
(650,575,l),
(650,734,o),
(471,800,o),
(336,800,c),
(172,807,o),
(51,703,o),
(50,569,c),
(50,311,o),
(509,400,o),
(509,248,c),
(509,96,o),
(538,0,o),
(337,0,c),
(182,0,o),
(50,94,o),
(50,247,c),
(180,247,l),
(180,165,o),
(229,130,o),
(337,130,c),
(439,130,o),
(645,115,o),
(650,241,c),
(650,518,o),
(190,380,o),
(190,569,c),
(182,660,o),
(311,670,o),
(336,670,c),
(446,670,o),
(509,631,o),
(509,575,c)
);
}
);
width = 700;
},
{
layerId = m005;
shapes = (
{
closed = 1;
nodes = (
(710,575,l),
(710,734,o),
(511,800,o),
(376,800,c),
(212,807,o),
(61,703,o),
(60,569,c),
(60,311,o),
(560,410,o),
(560,258,c),
(569,201,o),
(518,135,o),
(387,135,c),
(285,135,o),
(238,191,o),
(226,239,c),
(60,239,l),
(60,157,o),
(142,11,o),
(389,0,c),
(597,0,o),
(705,125,o),
(710,251,c),
(710,524,o),
(230,414,o),
(230,569,c),
(230,660,o),
(351,659,o),
(376,659,c),
(486,659,o),
(560,631,o),
(560,575,c)
);
}
);
width = 770;
}
);
unicode = (83,115);
},
{
glyphname = T;
lastChange = "2024-03-08 20:18:12 +0000";
layers = (
{
background = {
shapes = (
{
closed = 1;
nodes = (
(20,799,l),
(20,758,l),
(326,758,l),
(326,236,l),
(326,0,l),
(363,0,l),
(363,236,l),
(363,758,l),
(667,758,l),
(667,799,l)
);
}
);
};
layerId = m01;
shapes = (
{
closed = 1;
nodes = (
(20,758,l),
(325,758,l),
(325,505,o),
(326,253,o),
(326,0,c),
(338,0,o),
(351,0,o),
(363,0,c),
(363,253,o),
(362,505,o),
(362,758,c),
(670,758,l),
(670,800,l),
(20,800,l)
);
}
);
width = 690;
},
{
background = {
shapes = (
{
closed = 1;
nodes = (
(26,748,l),
(352,742,l),
(341,496,o),
(331,249,o),
(320,3,c),
(395,5,l),
(387,252,o),
(378,499,o),
(370,746,c),
(689,746,l),
(689,804,l),
(29,799,l)
);
}
);
};
layerId = m002;
shapes = (
{
closed = 1;
nodes = (
(30,743,l),
(357,743,l),
(350,590,o),
(325,123,o),
(320,0,c),
(345,0,o),
(373,0,o),
(398,0,c),
(391,151,o),
(370,591,o),
(363,743,c),
(690,743,l),
(690,800,l),
(30,800,l)
);
}
);
width = 720;
},
{
layerId = m003;
shapes = (
{
closed = 1;
nodes = (
(40,726,l),
(320,725,l),
(320,295,o),
(435,330,o),
(435,0,c),
(410,0,o),
(350,0,o),
(320,0,c),
(320,340,o),
(435,273,o),
(435,727,c),
(710,726,l),
(710,800,l),
(40,800,l)
);
}
);
width = 750;
},
{
background = {
shapes = (
{
closed = 1;
nodes = (
(479,94,o),
(439,132,o),
(397,206,c),
(361,132,o),
(326,88,o),
(325,0,c),
(326,0,o),
(414,2,o),
(472,0,c)
);
},
{
closed = 1;
nodes = (
(744,799,l),
(50,799,l),
(50,706,l),
(319,706,l),
(306,413,o),
(352,287,o),
(397,206,c),
(440,293,o),
(484,420,o),
(475,706,c),
(744,706,l)
);
}
);
};
layerId = m004;
shapes = (
{
closed = 1;
nodes = (
(50,702,l),
(316,701,l),
(287,207,o),
(476,186,o),
(476,0,c),
(451,0,o),
(346,0,o),
(316,0,c),
(316,157,o),
(491,191,o),
(476,703,c),
(750,702,l),
(750,800,l),
(50,800,l)
);
}
);
width = 800;
},
{
background = {
shapes = (
{
closed = 1;
nodes = (
(60,799,l),
(60,690,l),
(321,690,l),
(321,327,l),
(321,0,l),
(509,0,l),
(509,322,l),
(508,690,l),
(771,690,l),
(771,799,l)
);
}
);
};
layerId = m005;
shapes = (
{
closed = 1;
nodes = (
(60,690,l),
(326,689,l),
(326,689,o),
(321,0,o),
(321,0,c),
(296,0,o),
(539,0,o),
(509,0,c),
(509,0,o),
(507,691,o),
(507,691,c),
(770,690,l),
(770,800,l),
(60,800,l)
);
}
);
width = 830;
}
);
unicode = (84,116);
},
{
glyphname = U;
lastChange = "2024-03-08 20:18:12 +0000";
layers = (
{
layerId = m01;
shapes = (
{
closed = 1;
nodes = (
(60,800,l),
(60,300,l),
(60,143,o),
(135,40,o),
(283,40,c),
(441,40,o),
(540,133,o),
(540,300,c),
(540,800,l),
(580,800,l),
(580,300,l),
(580,115,o),
(489,0,o),
(287,0,c),
(103,0,o),
(20,115,o),
(20,300,c),
(20,800,l)
);
}
);
width = 600;
},
{
layerId = m002;
shapes = (
{
closed = 1;
nodes = (
(64,800,l),
(85,300,l),
(85,143,o),
(165,60,o),
(313,60,c),
(471,60,o),
(550,133,o),
(550,300,c),
(550,800,l),
(610,800,l),
(610,300,l),
(610,115,o),
(519,0,o),
(317,0,c),
(133,0,o),
(37,115,o),
(37,300,c),
(57,800,l)
);
}
);
width = 640;
},
{
layerId = m003;
shapes = (
{
closed = 1;
nodes = (
(40,800,l),
(40,300,l),
(40,143,o),
(175,100,o),
(323,100,c),
(481,100,o),
(560,133,o),
(560,300,c),
(560,800,l),
(660,800,l),
(660,300,l),
(660,115,o),
(529,0,o),
(327,0,c),
(143,0,o),
(140,115,o),
(140,300,c),
(140,800,l)
);
}
);
width = 700;
},
{
layerId = m004;
shapes = (
{
closed = 1;
nodes = (
(50,800,l),
(50,300,l),
(50,115,o),
(205,0,o),
(353,0,c),
(558,0,o),
(560,207,o),
(560,300,c),
(560,800,l),
(710,800,l),
(710,300,l),
(710,131,o),
(531,140,o),
(356,150,c),
(243,150,o),
(200,239,o),
(200,300,c),
(200,800,l)
);
}
);
width = 760;
},
{
layerId = m005;
shapes = (
{
closed = 1;
nodes = (
(60,800,l),
(60,350,l),
(60,77,o),
(265,0,o),
(413,0,c),
(618,0,o),
(760,133,o),
(760,350,c),
(760,800,l),
(560,800,l),
(560,350,l),
(560,240,o),
(475,200,o),
(416,200,c),
(311,203,o),
(260,261,o),
(260,350,c),
(260,800,l)
);
}
);
width = 820;
}
);
unicode = (85,117);
},
{
glyphname = V;
lastChange = "2024-03-08 20:18:12 +0000";
layers = (
{
layerId = m01;
shapes = (
{
closed = 1;
nodes = (
(493,558,o),
(409,315,o),
(325,73,c),
(63,800,l),
(20,800,l),
(308,0,l),
(342,0,l),
(435,267,o),
(527,533,o),
(620,800,c),
(606,800,o),
(591,800,o),
(577,800,c)
);
}
);
width = 640;
},
{
layerId = m002;
shapes = (
{
closed = 1;
nodes = (
(505,568,o),
(417,336,o),
(330,104,c),
(90,800,l),
(30,800,l),
(301,0,l),
(361,0,l),
(442,267,o),
(524,533,o),
(605,800,c),
(601,800,o),
(596,800,o),
(592,800,c)
);
}
);
width = 640;
},
{
layerId = m003;
shapes = (
{
closed = 1;
nodes = (
(610,514,o),
(487,357,o),
(380,136,c),
(155,798,l),
(40,798,l),
(332,-2,l),
(426,-2,l),
(520,276,o),
(503,533,o),
(581,800,c),
(621,800,o),
(660,800,o),
(700,800,c)
);
}
);
width = 740;
},
{
layerId = m004;
shapes = (
{
closed = 1;
nodes = (
(707,626,o),
(485,599,o),
(405,278,c),
(200,801,l),
(50,801,l),
(343,1,l),
(476,1,l),
(648,344,o),
(557,645,o),
(600,800,c),
(650,800,o),
(700,800,o),
(750,800,c)
);
}
);
width = 800;
},
{
layerId = m005;
shapes = (
{
closed = 1;
nodes = (
(551,633,o),
(493,467,o),
(434,300,c),
(260,800,l),
(60,800,l),
(328,0,l),
(542,0,l),
(631,267,o),
(721,533,o),
(810,800,c),
(743,800,o),
(677,800,o),
(610,800,c)
);
}
);
width = 870;
}
);
unicode = (86,118);
},
{
glyphname = W;
lastChange = "2024-03-08 20:18:12 +0000";
layers = (
{
layerId = m01;
shapes = (
{
closed = 1;
nodes = (
(468,558,o),
(392,315,o),
(316,73,c),
(79,800,l),
(40,800,l),
(301,0,l),
(332,0,l),
(416,267,o),
(499,533,o),
(583,800,c),
(570,800,o),
(557,800,o),
(544,800,c)
);
},
{
closed = 1;
nodes = (
(976,558,o),
(896,315,o),
(820,73,c),
(583,800,l),
(544,800,l),
(805,0,l),
(836,0,l),
(920,267,o),
(1005,533,o),
(1090,800,c),
(1077,800,o),
(1064,800,o),
(1051,800,c)
);
}
);
width = 1130;
},
{
layerId = m002;
shapes = (
{
closed = 1;
nodes = (
(497,568,o),
(423,336,o),
(350,104,c),
(110,800,l),
(50,800,l),
(321,0,l),
(381,0,l),
(462,267,o),
(549,533,o),
(630,800,c),
(626,800,o),
(574,800,o),
(570,800,c)
);
},
{
closed = 1;
nodes = (
(1050,568,o),
(957,336,o),
(870,104,c),
(630,800,l),
(570,800,l),
(841,0,l),
(901,0,l),
(982,267,o),
(1069,533,o),
(1150,800,c),
(1146,800,o),
(1141,800,o),
(1137,800,c)
);
}
);
width = 1200;
},
{
layerId = m003;
shapes = (
{
closed = 1;
nodes = (
(534,579,o),
(466,357,o),
(397,136,c),
(175,798,l),
(60,798,l),
(352,-2,l),
(446,-2,l),
(537,265,o),
(627,533,o),
(718,800,c),
(680,800,o),
(641,800,o),
(603,800,c)
);
},
{
closed = 1;
nodes = (
(1170,516,o),
(1050,359,o),
(943,138,c),
(718,800,l),
(603,800,l),
(895,0,l),
(989,0,l),
(1083,278,o),
(1063,535,o),
(1141,802,c),
(1181,802,o),
(1220,802,o),
(1260,802,c)
);
}
);
width = 1320;
},
{
layerId = m004;
shapes = (
{
closed = 1;
nodes = (
(555,627,o),
(490,452,o),
(425,278,c),
(220,801,l),
(70,801,l),
(363,1,l),
(496,1,l),
(587,268,o),
(679,534,o),
(770,801,c),
(720,801,o),
(670,801,o),
(620,801,c)
);
},
{
closed = 1;
nodes = (
(1277,626,o),
(1055,599,o),
(975,278,c),
(770,801,l),
(620,801,l),
(913,1,l),
(1046,1,l),
(1218,344,o),
(1127,645,o),
(1170,800,c),
(1220,800,o),
(1270,800,o),
(1320,800,c)
);
}
);
width = 1390;
},
{
layerId = m005;
shapes = (
{
closed = 1;
nodes = (
(571,633,o),
(513,467,o),
(454,300,c),
(280,800,l),
(80,800,l),
(348,0,l),
(562,0,l),
(651,267,o),
(741,533,o),
(830,800,c),
(763,800,o),
(697,800,o),
(630,800,c)
);
},
{
closed = 1;
nodes = (
(1121,633,o),
(1063,467,o),
(1004,300,c),
(830,800,l),
(630,800,l),
(898,0,l),
(1112,0,l),
(1201,267,o),
(1291,533,o),
(1380,800,c),
(1313,800,o),
(1247,800,o),
(1180,800,c)
);
}
);
width = 1460;
}
);
unicode = (87,119);
},
{
glyphname = X;
lastChange = "2024-03-09 14:47:56 +0000";
layers = (
{
layerId = m01;
shapes = (
{
closed = 1;
nodes = (
(290,403,l),
(200,269,o),
(110,134,o),
(20,0,c),
(65,0,l),
(150,128,o),
(236,255,o),
(321,383,c),
(575,0,l),
(620,0,l),
(350,403,l),
(440,535,o),
(530,668,o),
(620,800,c),
(575,800,l),
(490,674,o),
(405,549,o),
(320,423,c),
(65,800,l),
(20,800,l)
);
}
);
width = 640;
},
{
layerId = m002;
shapes = (
{
closed = 1;
nodes = (
(302,401,l),
(211,267,o),
(121,134,o),
(30,0,c),
(95,0,l),
(175,120,o),
(254,240,o),
(334,360,c),
(585,0,l),
(650,0,l),
(365,400,l),
(450,533,o),
(536,667,o),
(621,800,c),
(613,800,l),
(521,682,o),
(428,563,o),
(336,445,c),
(96,800,l),
(30,800,l)
);
}
);
width = 680;
},
{
layerId = m003;
shapes = (
{
closed = 1;
nodes = (
(312,401,l),
(221,267,o),
(131,134,o),
(40,0,c),
(160,0,l),
(225,102,o),
(291,203,o),
(356,305,c),
(560,0,l),
(680,0,l),
(414,400,l),
(496,527,o),
(475,667,o),
(560,800,c),
(680,800,l),
(591,650,o),
(463,607,o),
(367,481,c),
(160,800,l),
(40,800,l)
);
}
);
width = 720;
},
{
layerId = m004;
shapes = (
{
closed = 1;
nodes = (
(321,401,l),
(212,261,o),
(242,134,o),
(202,0,c),
(52,0,l),
(156,146,o),
(283,161,o),
(365,305,c),
(559,0,l),
(709,0,l),
(423,400,l),
(518,533,o),
(614,667,o),
(709,800,c),
(559,800,l),
(498,707,o),
(437,615,o),
(376,522,c),
(200,800,l),
(50,800,l)
);
}
);
width = 759;
},
{
background = {
shapes = (
{
closed = 1;
nodes = (
(510,799,l),
(510,792,l),
(604,784,l),
(613,772,l),
(377,426,l),
(145,772,l),
(154,784,l),
(248,792,l),
(248,799,l),
(28,799,l),
(28,792,l),
(124,784,l),
(370,420,l),
(91,15,l),
(0,7,l),
(0,0,l),
(217,0,l),
(217,7,l),
(121,15,l),
(112,27,l),
(376,412,l),
(629,27,l),
(619,15,l),
(526,7,l),
(526,0,l),
(743,0,l),
(743,7,l),
(648,15,l),
(381,419,l),
(632,784,l),
(728,792,l),
(728,799,l)
);
}
);
};
layerId = m005;
shapes = (
{
closed = 1;
nodes = (
(312,401,l),
(235,267,o),
(157,134,o),
(80,0,c),
(280,0,l),
(329,78,o),
(377,157,o),
(426,235,c),
(580,0,l),
(780,0,l),
(534,400,l),
(616,533,o),
(698,667,o),
(780,800,c),
(580,800,l),
(529,717,o),
(478,635,o),
(427,552,c),
(280,800,l),
(80,800,l)
);
}
);
width = 860;
}
);
unicode = (88,120);
},
{
glyphname = Y;
lastChange = "2024-03-09 14:48:04 +0000";
layers = (
{
layerId = m01;
shapes = (
{
closed = 1;
nodes = (
(306,401,l),
(308,267,o),
(311,134,o),
(313,0,c),
(358,0,l),
(356,133,o),
(353,267,o),
(351,400,c),
(441,533,o),
(530,667,o),
(620,800,c),
(575,800,l),
(493,679,o),
(410,558,o),
(328,437,c),
(65,800,l),
(20,800,l)
);
}
);
width = 640;
},
{
layerId = m002;
shapes = (
{
closed = 1;
nodes = (
(303,401,l),
(305,267,o),
(308,134,o),
(310,0,c),
(380,0,l),
(378,133,o),
(375,267,o),
(373,400,c),
(456,533,o),
(539,667,o),
(622,800,c),
(614,800,l),
(524,695,o),
(434,590,o),
(344,485,c),
(100,800,l),
(30,800,l)
);
}
);
width = 654;
},
{
layerId = m003;
shapes = (
{
closed = 1;
nodes = (
(303,401,l),
(303,267,o),
(303,134,o),
(303,0,c),
(423,0,l),
(423,133,o),
(423,267,o),
(423,400,c),
(557,559,o),
(460,667,o),
(560,800,c),
(680,800,l),
(605,631,o),
(457,617,o),
(369,525,c),
(160,800,l),
(40,800,l)
);
}
);
width = 720;
},
{
layerId = m004;
shapes = (
{
closed = 1;
nodes = (
(309,401,l),
(309,267,o),
(478,134,o),
(478,0,c),
(309,0,l),
(309,133,o),
(463,238,o),
(478,400,c),
(555,533,o),
(633,667,o),
(710,800,c),
(540,800,l),
(492,717,o),
(445,635,o),
(397,552,c),
(220,800,l),
(50,800,l)
);
}
);
width = 760;
},
{
layerId = m005;
shapes = (
{
closed = 1;
nodes = (
(343,401,l),
(343,267,o),
(343,134,o),
(343,0,c),
(514,0,l),
(514,133,o),
(514,267,o),
(514,400,c),
(603,533,o),
(691,667,o),
(780,800,c),
(580,800,l),
(529,717,o),
(478,643,o),
(427,560,c),
(280,800,l),
(80,800,l)
);
}
);
width = 860;
}
);
unicode = (89,121);
},
{
glyphname = Z;
lastChange = "2024-03-09 14:48:13 +0000";
layers = (
{
layerId = m01;
shapes = (
{
closed = 1;
nodes = (
(20,760,l),
(176,760,o),
(333,760,o),
(489,760,c),
(20,40,l),
(20,0,l),
(193,0,o),
(367,0,o),
(540,0,c),
(540,39,l),
(382,40,o),
(223,41,o),
(65,42,c),
(540,760,l),
(540,800,l),
(367,800,o),
(193,800,o),
(20,800,c)
);
}
);
width = 560;
},
{
layerId = m002;
shapes = (
{
closed = 1;
nodes = (
(30,769,l),
(194,759,o),
(359,750,o),
(523,740,c),
(30,60,l),
(30,0,l),
(210,0,o),
(390,0,o),
(570,0,c),
(570,60,l),
(413,61,o),
(257,61,o),
(100,62,c),
(570,740,l),
(570,800,l),
(390,792,o),
(210,783,o),
(30,775,c)
);
}
);
width = 600;
},
{
layerId = m003;
shapes = (
{
closed = 1;
nodes = (
(40,800,l),
(249,800,o),
(333,700,o),
(510,700,c),
(40,100,l),
(40,0,l),
(233,14,o),
(427,27,o),
(620,41,c),
(620,50,l),
(460,67,o),
(300,83,o),
(140,100,c),
(620,700,l),
(620,800,l),
(376,800,o),
(249,700,o),
(40,700,c)
);
}
);
width = 660;
},
{
layerId = m004;
shapes = (
{
closed = 1;
nodes = (
(50,700,l),
(203,700,o),
(357,700,o),
(510,700,c),
(50,120,l),
(50,0,l),
(279,0,o),
(422,119,o),
(651,124,c),
(650,0,l),
(456,0,o),
(343,115,o),
(190,120,c),
(650,700,l),
(650,800,l),
(450,800,o),
(250,800,o),
(50,800,c)
);
}
);
width = 701;
},
{
layerId = m005;
shapes = (
{
closed = 1;
nodes = (
(80,640,l),
(220,640,o),
(360,640,o),
(500,640,c),
(80,160,l),
(80,0,l),
(280,0,o),
(480,0,o),
(680,0,c),
(680,160,l),
(540,160,o),
(400,160,o),
(260,160,c),
(680,640,l),
(680,800,l),
(480,800,o),
(280,800,o),
(80,800,c)
);
}
);
width = 760;
}
);
unicode = (90,122);
},
{
glyphname = zero;
lastChange = "2024-03-11 00:34:21 +0000";
layers = (
{
layerId = m01;
shapes = (
{
closed = 1;
nodes = (
(73,800,o),
(20,560,o),
(20,400,c),
(20,98,o),
(173,0,o),
(320,0,c),
(492,0,o),
(620,154,o),
(620,400,c),
(620,606,o),
(561,801,o),
(314,801,c)
);
},
{
attr = {
mask = "1";
};
closed = 1;
nodes = (
(122,761,o),
(60,543,o),
(60,400,c),
(60,163,o),
(189,40,o),
(319,40,c),
(462,40,o),
(580,203,o),
(580,400,c),
(580,521,o),
(549,762,o),
(315,761,c)
);
}
);
width = 640;
},
{
layerId = m002;
shapes = (
{
closed = 1;
nodes = (
(113,800,o),
(30,560,o),
(30,400,c),
(30,98,o),
(213,0,o),
(360,0,c),
(532,0,o),
(670,154,o),
(670,400,c),
(670,606,o),
(601,801,o),
(354,801,c)
);
},
{
attr = {
mask = "1";
};
closed = 1;
nodes = (
(139,771,o),
(50,561,o),
(50,423,c),
(50,195,o),
(203,77,o),
(328,77,c),
(466,77,o),
(589,234,o),
(589,423,c),
(589,540,o),
(550,772,o),
(324,771,c)
);
}
);
width = 700;
},
{
layerId = m003;
shapes = (
{
closed = 1;
nodes = (
(106,800,o),
(40,561,o),
(40,401,c),
(40,54,o),
(268,0,o),
(380,0,c),
(552,0,o),
(700,154,o),
(700,400,c),
(700,606,o),
(608,800,o),
(361,800,c)
);
},
{
attr = {
mask = "1";
};
closed = 1;
nodes = (
(127,700,o),
(67,476,o),
(67,342,c),
(67,121,o),
(226,18,o),
(371,18,c),
(477,24,o),
(621,72,o),
(621,346,c),
(621,511,o),
(553,702,o),
(333,701,c)
);
}
);
width = 740;
},
{
layerId = m004;
shapes = (
{
closed = 1;
nodes = (
(115,799,o),
(50,590,o),
(50,400,c),
(50,76,o),
(250,0,o),
(409,0,c),
(581,0,o),
(750,154,o),
(750,400,c),
(750,606,o),
(631,800,o),
(384,800,c)
);
},
{
attr = {
mask = "1";
};
closed = 1;
nodes = (
(210,700,o),
(150,565,o),
(150,400,c),
(150,173,o),
(285,100,o),
(409,100,c),
(555,105,o),
(728,173,o),
(728,400,c),
(728,565,o),
(610,701,o),
(390,700,c)
);
}
);
width = 800;
},
{
layerId = m005;
shapes = (
{
closed = 1;
nodes = (
(122,800,o),
(60,590,o),
(60,400,c),
(60,76,o),
(285,0,o),
(432,0,c),
(616,0,o),
(810,83,o),
(810,400,c),
(810,606,o),
(711,800,o),
(432,800,c)
);
},
{
attr = {
mask = "1";
};
closed = 1;
nodes = (
(282,647,o),
(206,545,o),
(206,396,c),
(206,211,o),
(331,145,o),
(432,145,c),
(562,150,o),
(663,202,o),
(663,396,c),
(663,545,o),
(604,652,o),
(432,647,c)
);
}
);
width = 870;
}
);
unicode = 48;
},
{
glyphname = one;
lastChange = "2024-03-11 00:34:13 +0000";
layers = (
{
layerId = m01;
shapes = (
{
closed = 1;
nodes = (
(207,0,o),
(193,0,o),
(180,0,c),
(180,252,o),
(180,503,o),
(180,755,c),
(20,669,l),
(20,714,l),
(180,800,l),
(220,800,l),
(220,533,o),
(220,267,o),
(220,0,c)
);
}
);
width = 240;
},
{
layerId = m002;
shapes = (
{
closed = 1;
nodes = (
(230,0,o),
(210,0,o),
(190,0,c),
(190,245,o),
(190,490,o),
(190,735,c),
(30,649,l),
(30,714,l),
(218,800,l),
(225,800,l),
(233,533,o),
(242,267,o),
(250,0,c)
);
}
);
width = 280;
},
{
layerId = m003;
shapes = (
{
closed = 1;
nodes = (
(277,0,o),
(243,0,o),
(210,0,c),
(226,320,o),
(328,473,o),
(314,800,c),
(40,633,l),
(40,714,l),
(213,800,l),
(221,800,l),
(221,476,o),
(310,337,o),
(310,0,c)
);
}
);
width = 355;
},
{
layerId = m004;
shapes = (
{
closed = 1;
nodes = (
(231,0,o),
(381,0,o),
(381,0,c),
(381,341,o),
(228,319,o),
(228,651,c),
(50,564,l),
(50,714,l),
(228,800,l),
(378,800,l),
(400,321,o),
(231,337,o),
(231,0,c)
);
}
);
width = 431;
},
{
layerId = m005;
shapes = (
{
closed = 1;
nodes = (
(460,0,o),
(260,0,o),
(260,0,c),
(260,341,o),
(260,268,o),
(260,600,c),
(60,514,l),
(60,714,l),
(260,800,l),
(460,800,l),
(460,321,o),
(460,337,o),
(460,0,c)
);
}
);
width = 520;
}
);
unicode = 49;
},
{
glyphname = two;
lastChange = "2024-03-11 00:34:08 +0000";
layers = (
{
layerId = m01;
shapes = (
{
closed = 1;
nodes = (
(106,782,o),
(146,800,o),
(271,801,c),
(463,800,o),
(520,691,o),
(520,586,c),
(520,324,o),
(130,314,o),
(61,40,c),
(84,40,l),
(520,40,l),
(520,0,l),
(20,0,l),
(21,56,l),
(90,346,o),
(480,346,o),
(480,583,c),
(480,676,o),
(425,760,o),
(271,760,c),
(166,760,o),
(111,748,o),
(38,687,c),
(38,727,l)
);
}
);
width = 540;
},
{
layerId = m002;
shapes = (
{
closed = 1;
nodes = (
(116,751,o),
(180,790,o),
(291,791,c),
(483,790,o),
(550,691,o),
(550,586,c),
(550,299,o),
(160,334,o),
(91,60,c),
(123,60,l),
(550,60,l),
(550,0,l),
(30,0,l),
(31,56,l),
(100,346,o),
(490,346,o),
(490,583,c),
(490,676,o),
(445,765,o),
(291,765,c),
(208,765,o),
(121,748,o),
(48,687,c),
(48,696,l)
);
}
);
width = 580;
},
{
layerId = m003;
shapes = (
{
closed = 1;
nodes = (
(163,673,o),
(215,708,o),
(301,708,c),
(493,707,o),
(591,691,o),
(591,586,c),
(591,299,o),
(216,373,o),
(147,100,c),
(169,100,l),
(580,100,l),
(580,0,l),
(40,0,l),
(41,100,l),
(110,391,o),
(491,345,o),
(491,582,c),
(491,675,o),
(455,800,o),
(301,800,c),
(218,800,o),
(131,748,o),
(58,687,c),
(95,618,l)
);
}
);
width = 631;
},
{
layerId = m004;
shapes = (
{
closed = 1;
nodes = (
(203,614,o),
(255,650,o),
(321,650,c),
(375,650,o),
(471,640,o),
(471,556,c),
(471,269,o),
(266,413,o),
(197,140,c),
(217,140,l),
(590,140,l),
(590,0,l),
(50,0,l),
(51,140,l),
(120,431,o),
(621,315,o),
(621,552,c),
(621,660,o),
(580,800,o),
(321,800,c),
(219,800,o),
(141,748,o),
(68,687,c),
(135,559,l)
);
}
);
width = 671;
},
{
layerId = m005;
shapes = (
{
closed = 1;
nodes = (
(213,614,o),
(285,650,o),
(351,650,c),
(368,650,o),
(501,659,o),
(501,556,c),
(501,305,o),
(129,419,o),
(60,150,c),
(60,0,l),
(659,0,l),
(659,150,l),
(259,150,l),
(242,150,l),
(271,317,o),
(661,277,o),
(661,551,c),
(661,659,o),
(577,800,o),
(351,800,c),
(249,800,o),
(151,748,o),
(78,687,c),
(145,559,l)
);
}
);
width = 721;
}
);
unicode = 50;
},
{
glyphname = three;
lastChange = "2024-03-11 00:34:02 +0000";
layers = (
{
layerId = m01;
shapes = (
{
closed = 1;
nodes = (
(72,658,l),
(100,729,o),
(169,760,o),
(275,760,c),
(399,760,o),
(482,690,o),
(479,598,c),
(479,503,o),
(336,441,o),
(211,441,c),
(211,377,l),
(368,377,o),
(481,318,o),
(481,202,c),
(481,91,o),
(372,40,o),
(266,40,c),
(162,40,o),
(60,78,o),
(60,171,c),
(20,171,l),
(20,58,o),
(143,0,o),
(266,1,c),
(399,0,o),
(520,74,o),
(521,202,c),
(521,347,o),
(374,410,o),
(241,410,c),
(242,410,o),
(243,410,o),
(244,410,cs),
(365,411,o),
(520,472,o),
(520,598,c),
(520,720,o),
(414,800,o),
(275,800,c),
(138,800,o),
(36,735,o),
(20,658,c)
);
}
);
width = 541;
},
{
layerId = m002;
shapes = (
{
closed = 1;
nodes = (
(72,658,l),
(100,729,o),
(179,740,o),
(285,740,c),
(409,740,o),
(482,690,o),
(479,598,c),
(479,503,o),
(346,446,o),
(221,446,c),
(221,372,l),
(378,372,o),
(478,318,o),
(478,202,c),
(478,91,o),
(364,60,o),
(276,60,c),
(189,60,o),
(90,88,o),
(90,181,c),
(30,181,l),
(30,68,o),
(167,1,o),
(276,1,c),
(409,0,o),
(539,74,o),
(540,202,c),
(540,347,o),
(424,410,o),
(291,410,c),
(292,410,o),
(293,410,o),
(294,410,cs),
(415,411,o),
(540,472,o),
(540,598,c),
(540,720,o),
(424,800,o),
(285,800,c),
(148,800,o),
(72,735,o),
(56,658,c)
);
}
);
width = 570;
},
{
layerId = m003;
shapes = (
{
closed = 1;
nodes = (
(40,608,l),
(46,746,o),
(197,800,o),
(303,800,c),
(427,800,o),
(472,670,o),
(469,578,c),
(469,483,o),
(356,466,o),
(231,466,c),
(231,352,l),
(388,352,o),
(468,318,o),
(468,202,c),
(468,132,o),
(371,93,o),
(276,100,c),
(219,99,o),
(140,141,o),
(140,201,c),
(40,201,l),
(40,70,o),
(176,0,o),
(276,1,c),
(430,-1,o),
(569,74,o),
(570,202,c),
(570,347,o),
(464,410,o),
(331,410,c),
(332,410,o),
(333,410,o),
(334,410,cs),
(455,411,o),
(570,452,o),
(570,578,c),
(570,700,o),
(444,700,o),
(305,700,c),
(221,705,o),
(144,658,o),
(139,608,c)
);
}
);
width = 610;
},
{
layerId = m004;
shapes = (
{
closed = 1;
nodes = (
(50,588,l),
(56,726,o),
(207,800,o),
(313,800,c),
(458,800,o),
(615,736,o),
(614,578,c),
(614,460,o),
(462,400,o),
(337,400,c),
(345,400,l),
(502,400,o),
(598,342,o),
(598,202,c),
(598,122,o),
(381,120,o),
(286,120,c),
(229,119,o),
(170,161,o),
(170,221,c),
(50,221,l),
(50,90,o),
(186,0,o),
(286,1,c),
(440,-1,o),
(468,73,o),
(469,201,c),
(469,346,o),
(371,345,o),
(238,345,c),
(238,378,o),
(238,412,o),
(238,445,c),
(373,456,o),
(508,493,o),
(508,578,c),
(509,650,o),
(415,680,o),
(315,680,c),
(231,680,o),
(174,638,o),
(169,588,c)
);
}
);
width = 664;
},
{
layerId = m005;
shapes = (
{
closed = 1;
nodes = (
(60,568,l),
(66,706,o),
(196,800,o),
(333,800,c),
(478,800,o),
(655,736,o),
(646,578,c),
(646,460,o),
(482,400,o),
(357,400,c),
(365,400,l),
(522,400,o),
(646,349,o),
(646,209,c),
(646,125,o),
(572,0,o),
(341,0,c),
(284,-1,o),
(59,36,o),
(60,221,c),
(187,221,l),
(187,169,o),
(264,116,o),
(336,118,c),
(442,118,o),
(506,151,o),
(506,205,c),
(506,350,o),
(371,341,o),
(238,341,c),
(238,374,o),
(238,428,o),
(238,461,c),
(373,472,o),
(508,493,o),
(508,578,c),
(509,650,o),
(435,680,o),
(335,680,c),
(217,680,o),
(194,618,o),
(189,568,c)
);
}
);
width = 706;
}
);
unicode = 51;
},
{
glyphname = four;
lastChange = "2024-03-11 00:33:56 +0000";
layers = (
{
layerId = m01;
shapes = (
{
closed = 1;
nodes = (
(338,804,l),
(41,214,l),
(352,214,l),
(352,267,o),
(352,321,o),
(352,374,c),
(392,374,l),
(392,321,o),
(392,267,o),
(392,214,c),
(520,214,l),
(520,174,l),
(392,174,l),
(392,116,o),
(392,58,o),
(392,0,c),
(352,0,l),
(352,58,o),
(352,116,o),
(352,174,c),
(20,174,l),
(20,262,l),
(292,800,l),
(338,800,l)
);
}
);
width = 540;
},
{
layerId = m002;
shapes = (
{
closed = 1;
nodes = (
(368,804,l),
(81,234,l),
(362,234,l),
(369,281,o),
(375,327,o),
(382,374,c),
(402,374,l),
(409,327,o),
(415,281,o),
(422,234,c),
(530,234,l),
(530,174,l),
(422,174,l),
(422,116,o),
(422,58,o),
(422,0,c),
(362,0,l),
(362,58,o),
(362,116,o),
(362,174,c),
(30,174,l),
(30,262,l),
(302,800,l),
(368,800,l)
);
}
);
width = 560;
},
{
layerId = m003;
shapes = (
{
closed = 1;
nodes = (
(398,804,l),
(118,254,l),
(392,254,l),
(392,311,o),
(472,318,o),
(472,384,c),
(402,384,l),
(398,316,o),
(475,308,o),
(472,254,c),
(560,254,l),
(560,174,l),
(472,174,l),
(472,116,o),
(472,58,o),
(472,0,c),
(392,0,l),
(392,58,o),
(392,116,o),
(392,174,c),
(40,174,l),
(40,262,l),
(312,800,l),
(398,800,l)
);
}
);
width = 600;
},
{
layerId = m004;
shapes = (
{
closed = 1;
nodes = (
(428,804,l),
(158,284,l),
(402,284,l),
(402,316,o),
(402,348,o),
(402,380,c),
(502,380,l),
(502,348,o),
(502,316,o),
(502,284,c),
(590,284,l),
(590,174,l),
(502,174,l),
(502,93,o),
(384,60,o),
(402,0,c),
(514,0,l),
(521,58,o),
(397,102,o),
(402,174,c),
(50,174,l),
(50,285,l),
(322,800,l),
(428,800,l)
);
}
);
width = 640;
},
{
layerId = m005;
shapes = (
{
closed = 1;
nodes = (
(478,804,l),
(208,314,l),
(412,314,l),
(412,346,o),
(412,358,o),
(412,390,c),
(551,390,l),
(551,358,o),
(551,346,o),
(551,314,c),
(660,314,l),
(660,174,l),
(551,174,l),
(551,116,o),
(551,58,o),
(551,0,c),
(412,0,l),
(412,58,o),
(412,116,o),
(412,174,c),
(60,174,l),
(60,315,l),
(332,800,l),
(478,800,l)
);
}
);
width = 720;
}
);
unicode = 52;
},
{
glyphname = five;
lastChange = "2024-03-11 00:35:37 +0000";
layers = (
{
layerId = m01;
shapes = (
{
closed = 1;
nodes = (
(340,800,o),
(180,800,o),
(20,800,c),
(20,455,l),
(60,455,l),
(131,511,o),
(211,534,o),
(272,534,c),
(491,534,o),
(480,329,o),
(480,275,c),
(480,178,o),
(445,40,o),
(278,40,c),
(177,40,o),
(60,96,o),
(59,214,c),
(20,214,l),
(20,85,o),
(132,0,o),
(277,0,c),
(466,0,o),
(520,152,o),
(520,275,c),
(520,378,o),
(509,574,o),
(272,574,c),
(193,574,o),
(127,544,o),
(60,506,c),
(60,760,l),
(207,760,o),
(353,760,o),
(500,760,c),
(500,773,o),
(500,787,o),
(500,800,c)
);
}
);
width = 540;
},
{
layerId = m002;
shapes = (
{
closed = 1;
nodes = (
(350,783,o),
(190,791,o),
(30,800,c),
(30,435,l),
(70,435,l),
(141,491,o),
(221,514,o),
(282,514,c),
(501,514,o),
(480,329,o),
(480,275,c),
(480,178,o),
(455,60,o),
(288,60,c),
(187,60,o),
(90,96,o),
(89,214,c),
(30,214,l),
(30,85,o),
(142,0,o),
(287,0,c),
(476,0,o),
(540,152,o),
(540,275,c),
(540,378,o),
(519,574,o),
(282,574,c),
(203,574,o),
(137,544,o),
(70,506,c),
(70,740,l),
(217,750,o),
(363,759,o),
(510,769,c),
(510,771,o),
(510,772,o),
(510,774,c)
);
}
);
width = 570;
},
{
layerId = m003;
shapes = (
{
closed = 1;
nodes = (
(348,700,o),
(231,812,o),
(40,800,c),
(40,415,l),
(80,415,l),
(151,471,o),
(231,494,o),
(292,494,c),
(483,494,o),
(470,312,o),
(470,275,c),
(470,178,o),
(436,80,o),
(298,80,c),
(217,76,o),
(120,96,o),
(119,214,c),
(40,214,l),
(40,85,o),
(152,0,o),
(297,0,c),
(504,0,o),
(570,152,o),
(570,275,c),
(570,433,o),
(515,574,o),
(292,574,c),
(213,574,o),
(177,554,o),
(110,516,c),
(110,700,l),
(257,700,o),
(347,791,o),
(530,800,c),
(530,767,o),
(530,733,o),
(530,700,c)
);
}
);
width = 610;
},
{
layerId = m004;
shapes = (
{
closed = 1;
nodes = (
(489,680,o),
(408,800,o),
(50,800,c),
(50,415,l),
(140,415,l),
(211,471,o),
(241,484,o),
(302,484,c),
(493,484,o),
(470,312,o),
(470,275,c),
(470,178,o),
(431,95,o),
(308,90,c),
(241,90,o),
(150,106,o),
(149,224,c),
(50,224,l),
(50,95,o),
(162,0,o),
(307,0,c),
(543,0,o),
(590,152,o),
(590,275,c),
(590,433,o),
(545,577,o),
(302,577,c),
(223,577,o),
(207,554,o),
(140,516,c),
(140,680,l),
(380,680,o),
(489,797,o),
(560,800,c),
(560,767,o),
(560,713,o),
(560,680,c)
);
}
);
width = 640;
},
{
layerId = m005;
shapes = (
{
closed = 1;
nodes = (
(519,800,o),
(418,800,o),
(60,800,c),
(60,415,l),
(170,415,l),
(241,471,o),
(281,484,o),
(342,484,c),
(480,484,o),
(480,312,o),
(480,275,c),
(480,181,o),
(441,115,o),
(318,110,c),
(251,110,o),
(181,155,o),
(179,224,c),
(60,224,l),
(60,95,o),
(172,0,o),
(317,0,c),
(553,0,o),
(610,139,o),
(610,275,c),
(610,433,o),
(538,577,o),
(342,577,c),
(263,577,o),
(231,566,o),
(170,516,c),
(170,678,l),
(410,678,o),
(519,678,o),
(590,678,c),
(590,646,o),
(590,800,o),
(590,800,c)
);
}
);
width = 670;
}
);
unicode = 53;
},
{
glyphname = six;
lastChange = "2024-03-11 00:33:43 +0000";
layers = (
{
layerId = m01;
shapes = (
{
closed = 1;
nodes = (
(576,656,l),
(542,738,o),
(420,763,o),
(344,760,c),
(166,760,o),
(60,586,o),
(60,403,c),
(60,209,o),
(166,40,o),
(333,40,c),
(466,40,o),
(580,126,o),
(580,249,c),
(583,369,o),
(494,442,o),
(333,443,c),
(182,445,o),
(116,364,o),
(65,254,c),
(54,295,l),
(79,383,o),
(184,481,o),
(333,481,c),
(502,481,o),
(620,404,o),
(620,249,c),
(620,106,o),
(498,0,o),
(333,0,c),
(150,0,o),
(20,162,o),
(20,403,c),
(20,609,o),
(150,800,o),
(344,800,c),
(467,800,o),
(580,760,o),
(620,656,c)
);
}
);
width = 640;
},
{
layerId = m002;
shapes = (
{
closed = 1;
nodes = (
(606,656,l),
(570,727,o),
(453,752,o),
(354,750,c),
(176,750,o),
(90,586,o),
(90,403,c),
(90,209,o),
(176,60,o),
(343,60,c),
(476,60,o),
(570,136,o),
(570,259,c),
(573,379,o),
(504,442,o),
(343,443,c),
(192,445,o),
(126,344,o),
(75,234,c),
(64,295,l),
(89,383,o),
(194,501,o),
(343,501,c),
(512,501,o),
(630,414,o),
(630,259,c),
(630,116,o),
(508,0,o),
(343,0,c),
(160,0,o),
(30,162,o),
(30,403,c),
(30,609,o),
(160,800,o),
(354,800,c),
(477,800,o),
(576,760,o),
(616,656,c)
);
}
);
width = 660;
},
{
layerId = m003;
shapes = (
{
closed = 1;
nodes = (
(640,636,l),
(640,755,o),
(463,802,o),
(364,800,c),
(186,800,o),
(120,586,o),
(120,403,c),
(120,209,o),
(186,80,o),
(353,80,c),
(486,80,o),
(560,136,o),
(560,259,c),
(563,369,o),
(473,426,o),
(353,423,c),
(202,425,o),
(150,321,o),
(99,211,c),
(74,295,l),
(99,383,o),
(204,501,o),
(353,501,c),
(535,501,o),
(640,414,o),
(640,259,c),
(640,80,o),
(518,0,o),
(353,0,c),
(170,0,o),
(40,141,o),
(40,403,c),
(40,609,o),
(170,721,o),
(364,721,c),
(487,721,o),
(555,700,o),
(556,636,c)
);
}
);
width = 680;
},
{
layerId = m004;
shapes = (
{
closed = 1;
nodes = (
(651,596,l),
(651,738,o),
(522,803,o),
(375,800,c),
(166,800,o),
(51,583,o),
(51,400,c),
(35,109,o),
(198,0,o),
(365,0,c),
(498,0,o),
(551,136,o),
(551,259,c),
(554,345,o),
(484,406,o),
(364,403,c),
(267,403,o),
(206,366,o),
(155,256,c),
(151,366,l),
(176,454,o),
(253,501,o),
(364,501,c),
(554,498,o),
(651,400,o),
(651,259,c),
(651,80,o),
(529,109,o),
(364,109,c),
(220,109,o),
(146,173,o),
(151,400,c),
(151,606,o),
(242,693,o),
(375,693,c),
(497,693,o),
(546,660,o),
(547,596,c)
);
}
);
width = 701;
},
{
layerId = m005;
shapes = (
{
closed = 1;
nodes = (
(661,566,l),
(661,708,o),
(532,803,o),
(385,800,c),
(176,800,o),
(61,583,o),
(61,400,c),
(45,109,o),
(208,0,o),
(375,0,c),
(508,0,o),
(661,62,o),
(661,259,c),
(664,345,o),
(628,492,o),
(384,487,c),
(287,487,o),
(242,453,o),
(191,392,c),
(210,251,l),
(235,339,o),
(307,375,o),
(384,375,c),
(461,376,o),
(539,357,o),
(539,259,c),
(539,198,o),
(500,129,o),
(374,129,c),
(252,129,o),
(195,201,o),
(201,400,c),
(201,546,o),
(252,653,o),
(385,653,c),
(475,653,o),
(526,630,o),
(527,566,c)
);
}
);
width = 721;
}
);
unicode = 54;
},
{
glyphname = seven;
lastChange = "2024-03-11 00:33:37 +0000";
layers = (
{
layerId = m01;
shapes = (
{
closed = 1;
nodes = (
(50,760,l),
(552,760,l),
(397,507,o),
(241,253,o),
(86,0,c),
(102,0,o),
(118,0,o),
(134,0,c),
(289,253,o),
(445,507,o),
(600,760,c),
(600,800,l),
(50,800,l)
);
}
);
width = 620;
},
{
layerId = m002;
shapes = (
{
closed = 1;
nodes = (
(30,740,l),
(512,740,l),
(367,493,o),
(221,247,o),
(76,0,c),
(81,0,o),
(87,0,o),
(92,0,c),
(255,247,o),
(417,493,o),
(580,740,c),
(580,800,l),
(30,800,l)
);
}
);
width = 610;
},
{
layerId = m003;
shapes = (
{
closed = 1;
nodes = (
(40,720,l),
(492,720,l),
(337,480,o),
(287,202,o),
(147,0,c),
(122,0,o),
(87,0,o),
(62,0,c),
(232,304,o),
(434,416,o),
(590,720,c),
(590,800,l),
(40,800,l)
);
}
);
width = 630;
},
{
layerId = m004;
shapes = (
{
closed = 1;
nodes = (
(50,690,l),
(472,690,l),
(182,241,o),
(280,91,o),
(217,0,c),
(192,0,o),
(97,0,o),
(72,0,c),
(128,102,o),
(383,224,o),
(600,690,c),
(600,800,l),
(50,800,l)
);
}
);
width = 650;
},
{
layerId = m005;
shapes = (
{
closed = 1;
nodes = (
(65,650,l),
(457,650,l),
(325,433,o),
(194,217,o),
(62,0,c),
(37,0,o),
(232,0,o),
(207,0,c),
(343,217,o),
(479,433,o),
(615,650,c),
(615,800,l),
(65,800,l)
);
}
);
width = 675;
}
);
unicode = 55;
},
{
glyphname = eight;
lastChange = "2024-03-11 00:40:32 +0000";
layers = (
{
layerId = m01;
shapes = (
{
closed = 1;
nodes = (
(415,430,o),
(525,500,o),
(525,611,c),
(525,723,o),
(415,803,o),
(304,803,c),
(192,803,o),
(82,723,o),
(82,611,c),
(82,500,o),
(192,430,o),
(304,430,c)
);
},
{
attr = {
mask = 1;
};
closed = 1;
nodes = (
(395,472,o),
(487,524,o),
(487,614,c),
(487,706,o),
(395,768,o),
(305,768,c),
(213,768,o),
(121,706,o),
(121,614,c),
(121,524,o),
(213,472,o),
(305,472,c)
);
},
{
closed = 1;
nodes = (
(428,-2,o),
(578,53,o),
(578,227,c),
(578,393,o),
(428,470,o),
(306,470,c),
(183,470,o),
(32,384,o),
(32,227,c),
(32,82,o),
(157,2,o),
(306,0,c)
);
},
{
attr = {
mask = "1";
};
closed = 1;
nodes = (
(408,35,o),
(541,82,o),
(541,224,c),
(541,360,o),
(408,429,o),
(306,429,c),
(204,429,o),
(71,360,o),
(71,224,c),
(71,115,o),
(185,35,o),
(306,35,c)
);
}
);
width = 600;
},
{
layerId = m002;
shapes = (
{
closed = 1;
nodes = (
(413,430,o),
(523,500,o),
(523,611,c),
(523,723,o),
(413,803,o),
(302,803,c),
(190,803,o),
(80,723,o),
(80,611,c),
(80,500,o),
(190,430,o),
(302,430,c)
);
},
{
attr = {
mask = "1";
};
closed = 1;
nodes = (
(420,470,o),
(506,519,o),
(506,603,c),
(506,690,o),
(420,748,o),
(335,748,c),
(248,748,o),
(162,690,o),
(162,603,c),
(162,519,o),
(248,470,o),
(335,470,c)
);
},
{
closed = 1;
nodes = (
(426,-4,o),
(576,53,o),
(576,227,c),
(576,393,o),
(426,470,o),
(304,470,c),
(181,470,o),
(30,384,o),
(30,227,c),
(30,82,o),
(155,0,o),
(304,-2,c)
);
},
{
attr = {
mask = "1";
};
closed = 1;
nodes = (
(374,48,o),
(502,94,o),
(502,231,c),
(502,362,o),
(374,429,o),
(275,429,c),
(176,429,o),
(48,362,o),
(48,231,c),
(48,126,o),
(158,48,o),
(275,48,c)
);
}
);
width = 606;
},
{
layerId = m003;
shapes = (
{
closed = 1;
nodes = (
(423,430,o),
(533,500,o),
(533,611,c),
(533,723,o),
(423,803,o),
(312,803,c),
(200,803,o),
(90,723,o),
(90,611,c),
(90,500,o),
(200,430,o),
(312,430,c)
);
},
{
attr = {
mask = "1";
};
closed = 1;
nodes = (
(446,473,o),
(528,520,o),
(528,600,c),
(528,683,o),
(446,738,o),
(365,738,c),
(282,738,o),
(200,683,o),
(200,600,c),
(200,520,o),
(282,473,o),
(365,473,c)
);
},
{
closed = 1;
nodes = (
(436,-4,o),
(586,53,o),
(586,227,c),
(586,393,o),
(436,470,o),
(314,470,c),
(191,470,o),
(40,384,o),
(40,227,c),
(40,82,o),
(165,0,o),
(314,-2,c)
);
},
{
attr = {
mask = "1";
};
closed = 1;
nodes = (
(372,18,o),
(494,62,o),
(494,193,c),
(494,318,o),
(372,382,o),
(277,382,c),
(182,382,o),
(60,318,o),
(60,193,c),
(60,93,o),
(165,18,o),
(277,18,c)
);
}
);
width = 626;
},
{
layerId = m004;
shapes = (
{
closed = 1;
nodes = (
(433,430,o),
(543,500,o),
(543,611,c),
(543,723,o),
(433,803,o),
(322,803,c),
(210,803,o),
(100,723,o),
(100,611,c),
(100,500,o),
(210,430,o),
(322,430,c)
);
},
{
attr = {
mask = "1";
};
closed = 1;
nodes = (
(351,512,o),
(429,557,o),
(429,634,c),
(429,713,o),
(351,766,o),
(273,766,c),
(194,766,o),
(115,713,o),
(115,634,c),
(115,557,o),
(194,512,o),
(273,512,c)
);
},
{
closed = 1;
nodes = (
(446,-4,o),
(596,53,o),
(596,227,c),
(596,393,o),
(446,470,o),
(324,470,c),
(201,470,o),
(50,384,o),
(50,227,c),
(50,82,o),
(175,0,o),
(324,-2,c)
);
},
{
attr = {
mask = "1";
};
closed = 1;
nodes = (
(480,48,o),
(593,89,o),
(593,210,c),
(593,327,o),
(480,386,o),
(391,386,c),
(303,386,o),
(190,327,o),
(190,210,c),
(190,118,o),
(287,48,o),
(391,48,c)
);
}
);
width = 646;
},
{
layerId = m005;
shapes = (
{
closed = 1;
nodes = (
(464,430,o),
(581,500,o),
(581,611,c),
(581,723,o),
(464,803,o),
(346,803,c),
(227,803,o),
(110,723,o),
(110,611,c),
(110,500,o),
(227,430,o),
(346,430,c)
);
},
{
attr = {
mask = "1";
};
closed = 1;
nodes = (
(413,508,o),
(477,545,o),
(477,609,c),
(477,675,o),
(413,718,o),
(348,718,c),
(283,718,o),
(218,675,o),
(218,609,c),
(218,545,o),
(283,508,o),
(348,508,c)
);
},
{
closed = 1;
nodes = (
(483,-4,o),
(643,53,o),
(643,227,c),
(643,393,o),
(483,470,o),
(353,470,c),
(221,470,o),
(60,384,o),
(60,227,c),
(60,82,o),
(194,0,o),
(353,-2,c)
);
},
{
attr = {
mask = "1";
};
closed = 1;
nodes = (
(429,84,o),
(531,120,o),
(531,229,c),
(531,333,o),
(429,386,o),
(350,386,c),
(271,386,o),
(170,333,o),
(170,229,c),
(170,146,o),
(257,84,o),
(350,84,c)
);
}
);
width = 703;
}
);
unicode = 56;
},
{
glyphname = nine;
lastChange = "2024-03-11 00:33:26 +0000";
layers = (
{
layerId = m01;
shapes = (
{
closed = 1;
nodes = (
(64,151,l),
(98,69,o),
(220,44,o),
(296,47,c),
(474,47,o),
(580,221,o),
(580,404,c),
(580,598,o),
(474,767,o),
(307,767,c),
(174,767,o),
(60,681,o),
(60,558,c),
(57,438,o),
(146,365,o),
(307,364,c),
(458,362,o),
(524,443,o),
(575,553,c),
(586,512,l),
(561,424,o),
(456,326,o),
(307,326,c),
(138,326,o),
(20,403,o),
(20,558,c),
(20,701,o),
(142,807,o),
(307,807,c),
(490,807,o),
(620,645,o),
(620,404,c),
(620,198,o),
(490,7,o),
(296,7,c),
(173,7,o),
(60,47,o),
(20,151,c)
);
}
);
width = 640;
},
{
layerId = m002;
shapes = (
{
closed = 1;
nodes = (
(89,124,l),
(131,57,o),
(250,42,o),
(349,52,c),
(526,68,o),
(597,239,o),
(581,421,c),
(564,614,o),
(466,755,o),
(299,741,c),
(167,729,o),
(80,645,o),
(91,523,c),
(98,403,o),
(172,346,o),
(333,359,c),
(483,370,o),
(540,477,o),
(582,591,c),
(598,531,l),
(581,441,o),
(486,314,o),
(338,302,c),
(169,287,o),
(44,363,o),
(31,518,c),
(18,660,o),
(130,786,o),
(294,801,c),
(476,817,o),
(620,666,o),
(641,426,c),
(659,221,o),
(546,20,o),
(353,3,c),
(230,-8,o),
(128,23,o),
(79,123,c)
);
}
);
width = 673;
},
{
layerId = m003;
shapes = (
{
closed = 1;
nodes = (
(40,159,l),
(40,39,o),
(218,-7,o),
(316,-5,c),
(494,-5,o),
(560,209,o),
(560,391,c),
(561,586,o),
(495,714,o),
(327,715,c),
(194,714,o),
(120,659,o),
(121,535,c),
(117,426,o),
(207,369,o),
(327,372,c),
(478,369,o),
(530,473,o),
(581,583,c),
(606,500,l),
(582,412,o),
(476,293,o),
(327,293,c),
(146,294,o),
(40,381,o),
(40,536,c),
(40,715,o),
(162,795,o),
(327,795,c),
(511,794,o),
(640,653,o),
(640,391,c),
(640,186,o),
(510,73,o),
(316,73,c),
(194,74,o),
(125,95,o),
(124,158,c)
);
}
);
width = 680;
},
{
layerId = m004;
shapes = (
{
closed = 1;
nodes = (
(81,184,l),
(93,42,o),
(227,-11,o),
(373,5,c),
(582,23,o),
(677,249,o),
(661,431,c),
(652,723,o),
(480,817,o),
(314,802,c),
(181,791,o),
(140,651,o),
(151,528,c),
(155,442,o),
(231,388,o),
(350,401,c),
(446,409,o),
(504,452,o),
(545,566,c),
(559,456,l),
(542,367,o),
(469,313,o),
(358,303,c),
(169,290,o),
(64,379,o),
(51,519,c),
(36,698,o),
(160,680,o),
(324,694,c),
(468,706,o),
(547,649,o),
(562,423,c),
(580,217,o),
(497,123,o),
(364,111,c),
(243,101,o),
(191,129,o),
(184,193,c)
);
}
);
width = 713;
},
{
layerId = m005;
shapes = (
{
closed = 1;
nodes = (
(88,199,l),
(101,57,o),
(237,-26,o),
(384,-11,c),
(592,8,o),
(687,234,o),
(671,416,c),
(662,707,o),
(490,802,o),
(324,787,c),
(191,776,o),
(44,701,o),
(61,504,c),
(66,418,o),
(115,275,o),
(357,301,c),
(454,310,o),
(496,348,o),
(541,413,c),
(510,552,l),
(493,462,o),
(424,420,o),
(348,413,c),
(271,405,o),
(192,417,o),
(183,515,c),
(178,576,o),
(211,648,o),
(336,659,c),
(458,670,o),
(521,603,o),
(532,404,c),
(545,259,o),
(503,148,o),
(371,136,c),
(281,128,o),
(228,147,o),
(222,210,c)
);
}
);
width = 733;
}
);
unicode = 57;
},
